<?xml version="1.0" standalone="no"?>
<!DOCTYPE svg PUBLIC "-//W3C//DTD SVG 20010904//EN"
 "http://www.w3.org/TR/2001/REC-SVG-20010904/DTD/svg10.dtd">
<svg version="1.0" xmlns="http://www.w3.org/2000/svg"
 width="254.000000pt" height="254.000000pt" viewBox="0 0 254.000000 254.000000"
 preserveAspectRatio="xMidYMid meet">
<metadata>
Created by potrace 1.11, written by Peter Selinger 2001-2013
</metadata>
<g transform="translate(0.000000,254.000000) scale(0.100000,-0.100000)"
fill="#000000" stroke="none">
<path d="M1558 2338 c-11 -11 -216 -186 -227 -195 -2 -2 -3 -50 -2 -107 l2
-103 -603 -1 c-332 0 -609 -1 -615 -1 -10 -1 -12 -103 -10 -458 3 -417 5 -461
21 -496 37 -75 131 -128 280 -156 54 -10 73 0 79 44 56 361 195 577 417 646
66 20 171 26 260 14 66 -8 159 -36 167 -49 9 -14 12 -406 4 -406 -4 0 -17 13
-29 29 -12 16 -51 44 -88 62 -58 29 -76 33 -143 32 -93 0 -151 -24 -220 -88
-69 -64 -96 -129 -96 -230 0 -67 5 -89 28 -137 98 -199 369 -245 518 -87 22
23 39 38 40 33 0 -5 1 -75 1 -157 l1 -147 123 -105 c68 -58 127 -105 132 -105
4 0 8 45 7 101 -1 55 3 103 8 106 8 5 437 12 789 13 l116 0 -4 498 c-4 504
-12 1226 -13 1250 -1 11 -83 13 -456 9 l-455 -4 -1 61 c0 33 -1 80 -1 104 0
43 -7 51 -30 30z"/>
</g>
</svg>
