<svg xmlns="http://www.w3.org/2000/svg" viewBox="2021 10107.783 80 38.424">
  <defs>
    <style>
      .cls-1, .cls-2, .cls-3 {
        fill: #ce2840;
      }

      .cls-2, .cls-3 {
        stroke: #ce2840;
      }

      .cls-3 {
        stroke-width: 0.5px;
      }
    </style>
  </defs>
  <g id="_004-delivery-truck" data-name="004-delivery-truck" transform="translate(2021 9974.74)">
    <path id="Path_21" data-name="Path 21" class="cls-1" d="M124.846,152.317l-9.28-10.594a1.594,1.594,0,0,0-1.2-.544H106.64v-6.542a1.594,1.594,0,0,0-1.594-1.594H72.133a1.594,1.594,0,0,0-1.594,1.594v2.15H55.213a1.594,1.594,0,1,0,0,3.187H70.539v20.658H61.314a1.594,1.594,0,0,0,0,3.187h9.226v1.62a1.594,1.594,0,0,0,1.594,1.594h3.326a6.027,6.027,0,0,0,11.626,0h21.264a6.027,6.027,0,0,0,11.626,0h3.672a1.594,1.594,0,0,0,1.594-1.594V153.366A1.6,1.6,0,0,0,124.846,152.317ZM81.272,168.28a2.841,2.841,0,1,1,2.841-2.841A2.844,2.844,0,0,1,81.272,168.28Zm5.813-4.435a6.027,6.027,0,0,0-11.626,0H73.726V136.23h29.726v27.615Zm27.077,4.435A2.841,2.841,0,1,1,117,165.439,2.844,2.844,0,0,1,114.162,168.28Zm7.892-4.435h-2.079a6.027,6.027,0,0,0-11.626,0H106.64V144.366h7l8.409,9.6v9.879Z" transform="translate(-45.241)"/>
    <path id="Path_22" data-name="Path 22" class="cls-1" d="M56.064,309.611h-.85a1.594,1.594,0,1,0,0,3.187h.85a1.594,1.594,0,1,0,0-3.187Z" transform="translate(-45.242 -148.979)"/>
    <path id="Path_23" data-name="Path 23" class="cls-1" d="M18.672,232.276H1.594a1.594,1.594,0,1,0,0,3.187H18.672a1.594,1.594,0,1,0,0-3.187Z" transform="translate(0 -83.728)"/>
    <g id="_005-box" data-name="005-box" transform="translate(36.335 140.907)">
      <path id="Path_24" data-name="Path 24" class="cls-2" d="M348.786,363.381a.329.329,0,0,0-.422-.195l-3.419,1.261a.329.329,0,1,0,.228.617l3.419-1.261A.329.329,0,0,0,348.786,363.381Z" transform="translate(-333.618 -351.757)"/>
      <path id="Path_25" data-name="Path 25" class="cls-2" d="M311.856,413.281a.329.329,0,0,0-.422-.195l-.145.053a.329.329,0,1,0,.228.617l.145-.053A.329.329,0,0,0,311.856,413.281Z" transform="translate(-301.047 -400.048)"/>
      <path id="Path_26" data-name="Path 26" class="cls-2" d="M370.316,321.82a.329.329,0,0,0-.422-.195l-2.7,1a.329.329,0,1,0,.228.617l2.7-1A.329.329,0,0,0,370.316,321.82Z" transform="translate(-355.148 -311.536)"/>
      <path id="Path_27" data-name="Path 27" class="cls-2" d="M370.316,280.691a.329.329,0,0,0-.422-.195l-2.7,1a.329.329,0,1,0,.228.617l2.7-1A.329.329,0,0,0,370.316,280.691Z" transform="translate(-355.148 -271.733)"/>
      <path id="Path_28" data-name="Path 28" class="cls-3" d="M16.288,12.146,8.365,9.222a.329.329,0,0,0-.228,0L.215,12.146h0A.327.327,0,0,0,0,12.454v9.405a.329.329,0,0,0,.215.308l7.923,2.923a.327.327,0,0,0,.227,0h0l7.923-2.923a.329.329,0,0,0,.215-.308V12.454A.329.329,0,0,0,16.288,12.146ZM7.923,24.311.657,21.63v-8.7l1.479.546v3.983a.329.329,0,0,0,.215.308l3.55,1.31a.329.329,0,0,0,.443-.308V15.024l1.578.582v8.7ZM5.687,14.782v3.511L2.794,17.226V13.714ZM3.415,13.24l2.6-.96,2.6.96-2.6.96Zm4.836,1.787-1.289-.476,2.718-1a.329.329,0,0,0,0-.617l-3.55-1.31a.329.329,0,0,0-.228,0l-3.44,1.269-1.184-.437L8.251,9.881l6.973,2.573Zm7.594,6.6L8.58,24.311v-8.7l7.265-2.681Z" transform="translate(0 -9.202)"/>
    </g>
  </g>
</svg>
