<svg xmlns="http://www.w3.org/2000/svg" viewBox="809 9804 84.85 67.921">
  <defs>
    <style>
      .cls-1, .cls-2 {
        fill: #ce2840;
      }
      .cls-2 {
        stroke: #ce2840;
        stroke-width: 0.3px;
      }
    </style>
  </defs>
  <g id="_001-chat" data-name="001-chat" transform="translate(809 9801.535)">
    <path id="Path_6" data-name="Path 6" class="cls-1" d="M76.467,2.551,28.184,2.465c-4.624,0-8.386,3.281-8.386,7.314V16.1l-11.412.021C3.762,16.119,0,19.4,0,23.433V49.507c0,4.033,3.762,7.312,8.386,7.312H16.97V69.153a1.25,1.25,0,0,0,.905,1.151,1.6,1.6,0,0,0,.509.083,1.519,1.519,0,0,0,1.046-.4L33.154,56.817l23.512-.084c4.624,0,8.386-3.281,8.386-7.312v-.139l7.438,7.136a1.519,1.519,0,0,0,1.046.4,1.6,1.6,0,0,0,.509-.083,1.25,1.25,0,0,0,.905-1.151V43.254h1.513c4.624,0,8.386-3.281,8.386-7.312V9.865C84.85,5.833,81.09,2.553,76.467,2.551ZM62.223,49.419c0,2.673-2.493,4.846-5.563,4.846l-24.14.086a1.516,1.516,0,0,0-1.041.4L19.8,65.962V55.585a1.333,1.333,0,0,0-1.414-1.233h-10c-3.064,0-5.558-2.174-5.558-4.846V23.432c0-2.673,2.493-4.847,5.56-4.847l12.824-.023h0l35.45-.064c3.064,0,5.558,2.174,5.558,4.847V49.419Zm19.8-13.48c0,2.673-2.493,4.846-5.558,4.846H73.536a1.333,1.333,0,0,0-1.414,1.233V52.4l-7.071-6.783V23.345c0-4.033-3.762-7.314-8.389-7.314l-34.036.06V9.777c0-2.673,2.493-4.847,5.555-4.847l48.281.086h0c3.064,0,5.558,2.174,5.558,4.847V35.939Z" transform="translate(0 0)"/>
    <path id="Path_3" data-name="Path 3" class="cls-1" d="M10.233,25.932H26.267a1.233,1.233,0,0,0,0-2.467H10.233a1.233,1.233,0,0,0,0,2.467Z" transform="translate(28.86 -11.38)"/>
    <path id="Path_4" data-name="Path 4" class="cls-1" d="M17.44,29.465H9.313C9.14,29.465,9,30.018,9,30.7s.14,1.233.313,1.233H17.44c.173,0,.313-.553.313-1.233S17.613,29.465,17.44,29.465Z" transform="translate(54.64 -9.98)"/>
    <path id="Path_5" data-name="Path 5" class="cls-1" d="M17.44,35.465H9.313C9.14,35.465,9,36.018,9,36.7s.14,1.233.313,1.233H17.44c.173,0,.313-.553.313-1.233S17.613,35.465,17.44,35.465Z" transform="translate(54.64 -8.58)"/>
    <g id="_003-price-tag" data-name="003-price-tag" transform="translate(18.634 22.171)">
      <path id="Path_10" data-name="Path 10" class="cls-2" d="M28.373.139a.474.474,0,0,0-.671,0L25.942,1.9H14.887L.989,15.911a1.676,1.676,0,0,0,0,2.369L10.707,28a1.678,1.678,0,0,0,2.374,0l13.532-13.9V2.57L28.373.81A.474.474,0,0,0,28.373.139Zm-2.71,13.57L12.4,27.326a.727.727,0,0,1-1.027,0L1.661,17.609a.727.727,0,0,1,0-1.028L15.283,2.849h9.709L22.7,5.143a2.381,2.381,0,1,0,.671.671L25.664,3.52ZM22.815,7.122A1.424,1.424,0,1,1,21.39,5.7,1.408,1.408,0,0,1,22,5.84l-.946.946a.475.475,0,1,0,.671.671l.946-.946A1.4,1.4,0,0,1,22.815,7.122Z" transform="translate(-0.499 0)"/>
      <path id="Path_11" data-name="Path 11" class="cls-2" d="M36.522,31.127l-5.036,5.036a.475.475,0,1,0,.671.671L37.193,31.8a.475.475,0,1,0-.671-.671Z" transform="translate(-16.7 -16.275)"/>
      <path id="Path_12" data-name="Path 12" class="cls-2" d="M45.627,27.594a.5.5,0,0,0-.138.337.47.47,0,0,0,.475.475.459.459,0,0,0,.332-.138.468.468,0,0,0,.143-.337.48.48,0,0,0-.143-.337A.49.49,0,0,0,45.627,27.594Z" transform="translate(-24.128 -14.423)"/>
      <path id="Path_13" data-name="Path 13" class="cls-2" d="M30.829,18.363a.475.475,0,0,0-.671-.671l-5.036,5.036a.475.475,0,1,0,.671.671Z" transform="translate(-13.357 -9.218)"/>
      <path id="Path_14" data-name="Path 14" class="cls-2" d="M33.607,26.671a.475.475,0,0,0,.671,0l3.357-3.357a.475.475,0,1,0-.671-.671L33.607,26A.474.474,0,0,0,33.607,26.671Z" transform="translate(-17.814 -11.818)"/>
      <path id="Path_15" data-name="Path 15" class="cls-2" d="M27.207,35.369l-.671.671a.475.475,0,1,0,.671.671l.671-.671a.475.475,0,0,0-.671-.671Z" transform="translate(-14.1 -18.503)"/>
      <path id="Path_16" data-name="Path 16" class="cls-2" d="M16.972,22.124a.473.473,0,0,0,.336-.139l5.036-5.036a.475.475,0,1,0-.671-.671l-5.036,5.036a.475.475,0,0,0,.336.81Z" transform="translate(-8.901 -8.476)"/>
      <path id="Path_17" data-name="Path 17" class="cls-2" d="M31.114,13.557a.477.477,0,0,0,.337-.138.486.486,0,0,0,.138-.337.481.481,0,0,0-.142-.337.486.486,0,0,0-.669,0,.48.48,0,0,0-.138.332.5.5,0,0,0,.138.337A.478.478,0,0,0,31.114,13.557Z" transform="translate(-16.328 -6.625)"/>
      <path id="Path_18" data-name="Path 18" class="cls-2" d="M22.3,31.134a.468.468,0,0,0-.138.337.45.45,0,0,0,.138.332.466.466,0,0,0,.337.143.477.477,0,0,0,.332-.138.469.469,0,0,0,0-.674A.49.49,0,0,0,22.3,31.134Z" transform="translate(-11.875 -16.282)"/>
      <path id="Path_19" data-name="Path 19" class="cls-2" d="M31.451,33.217a.479.479,0,0,0,.138-.337.475.475,0,1,0-.95,0,.489.489,0,0,0,.138.337.482.482,0,0,0,.674,0Z" transform="translate(-16.328 -17.022)"/>
      <path id="Path_20" data-name="Path 20" class="cls-2" d="M17.4,41.117a2.366,2.366,0,0,0,.386-1.506,1.632,1.632,0,0,0-.608-1.141,1.738,1.738,0,0,0-1.3-.371l-1.33.166L12.72,36.439a1.422,1.422,0,0,1,1.617.274.475.475,0,1,0,.671-.671,2.378,2.378,0,0,0-2.988-.3l-.37-.37a.475.475,0,1,0-.671.671l.371.371a2.368,2.368,0,0,0-.386,1.506,1.633,1.633,0,0,0,.607,1.14,1.738,1.738,0,0,0,1.3.372l1.33-.166,1.821,1.821a1.46,1.46,0,0,1-1.612-.27.475.475,0,0,0-.671.671,2.373,2.373,0,0,0,2.987.3l.3.3a.475.475,0,1,0,.671-.671Zm-4.644-2.628a.777.777,0,0,1-.584-.167.694.694,0,0,1-.26-.482,1.42,1.42,0,0,1,.14-.727l1.3,1.3Zm3.24.552a.77.77,0,0,1,.584.167.693.693,0,0,1,.26.482,1.415,1.415,0,0,1-.141.727l-1.3-1.3Z" transform="translate(-5.93 -18.503)"/>
    </g>
  </g>
</svg>
