<svg xmlns="http://www.w3.org/2000/svg" viewBox="2147.34 10652.484 51.14 60.343">
  <defs>
    <style>
      .cls-1, .cls-2, .cls-3 {
        fill: #333;
      }

      .cls-1 {
        opacity: 0.68;
      }

      .cls-2 {
        opacity: 0.7;
      }
    </style>
  </defs>
  <g id="paypal" transform="translate(2147.34 10652.484)">
    <path id="Path_3" data-name="Path 3" class="cls-1" d="M46.085,15.331c.736-4.694-.005-7.888-2.543-10.781C40.746,1.365,35.7,0,29.234,0H10.48A2.684,2.684,0,0,0,7.83,2.265L.02,51.786a1.611,1.611,0,0,0,1.59,1.862H13.189l-.8,5.068a1.408,1.408,0,0,0,1.391,1.627h9.76a2.347,2.347,0,0,0,2.318-1.981l.1-.5,1.838-11.658.119-.645a2.347,2.347,0,0,1,2.318-1.981h1.46c9.454,0,16.858-3.842,19.021-14.95.9-4.641.436-8.516-1.954-11.24a9.308,9.308,0,0,0-2.672-2.061h0" transform="translate(0 0)"/>
    <path id="Path_4" data-name="Path 4" class="cls-2" d="M46.085,15.331c.736-4.694-.005-7.888-2.543-10.781C40.746,1.365,35.7,0,29.234,0H10.48A2.684,2.684,0,0,0,7.83,2.265L.02,51.786a1.611,1.611,0,0,0,1.59,1.862H13.189L16.1,35.205l-.091.578a2.674,2.674,0,0,1,2.641-2.265h5.5c10.807,0,19.27-4.391,21.743-17.089.072-.376.135-.74.191-1.1" transform="translate(0 0)"/>
    <path id="Path_5" data-name="Path 5" class="cls-3" d="M19.221,15.394a2.348,2.348,0,0,1,2.319-1.982h14.7a30.622,30.622,0,0,1,4.85.353q.637.1,1.238.235c.4.089.79.189,1.168.3.188.055.374.113.556.173a13.237,13.237,0,0,1,2.033.859c.736-4.694-.005-7.888-2.543-10.781C40.746,1.365,35.7,0,29.234,0H10.48A2.684,2.684,0,0,0,7.83,2.265L.02,51.786a1.611,1.611,0,0,0,1.59,1.862H13.189L16.1,35.205Z" transform="translate(0 0)"/>
  </g>
</svg>
