<svg xmlns="http://www.w3.org/2000/svg" viewBox="2020.472 9698.457 61.064 35.297">
  <defs>
    <style>
      .cls-1 {
        fill: #ce2840;
        stroke: #ce2840;
      }
    </style>
  </defs>
  <g id="_002-send" data-name="002-send" transform="translate(2021.002 9589.153)">
    <path id="Path_7" data-name="Path 7" class="cls-1" d="M28.364,113.392a.875.875,0,0,0,.58-.219,8.567,8.567,0,0,1,2.726-1.621.879.879,0,0,0-.6-1.651,10.321,10.321,0,0,0-3.283,1.953.879.879,0,0,0,.581,1.539Z" transform="translate(-24.266)"/>
    <path id="Path_8" data-name="Path 8" class="cls-1" d="M217.4,173.461a2.215,2.215,0,0,0-2.237-1.48h0l-34.832,1.856a1.979,1.979,0,0,0-1.2,3.462l7.8,6.858a.774.774,0,0,1,.215.313v.006a.773.773,0,0,1,.037.379l-1.566,10.266a1.978,1.978,0,0,0,3.146,1.88l2.385-1.794.683,1.877a2.814,2.814,0,0,0,2.128,1.815,2.891,2.891,0,0,0,.548.053,2.81,2.81,0,0,0,2.1-.945l19-21.2,1.027-.773A2.213,2.213,0,0,0,217.4,173.461Zm-22.1,23.373a1.079,1.079,0,0,1-1.818-.351l-.866-2.381,15.751-11.848Zm-4.261-3.745-.007.005-3.326,2.5a.221.221,0,0,1-.352-.21l1.566-10.266a2.562,2.562,0,0,0,.028-.367l5.776-2.1a.879.879,0,1,0-.6-1.652l-5.776,2.1a2.552,2.552,0,0,0-.258-.263l-7.8-6.858a.221.221,0,0,1,.135-.387l33.447-1.782-15.754,5.734a.879.879,0,1,0,.6,1.652l15.753-5.734Z" transform="translate(-157.546 -54.85)"/>
    <path id="Path_9" data-name="Path 9" class="cls-1" d="M24.188,167.613l-5.129,1.878a10.554,10.554,0,0,1-8.124-.338,7.739,7.739,0,0,1-2.715-2.087l.755.35A7.015,7.015,0,1,0,5.564,158.1a9.463,9.463,0,0,0-.831,5.047A8.614,8.614,0,0,1,2.56,153.02a.879.879,0,1,0-1.594-.74A10.361,10.361,0,0,0,5.4,165.732a9.455,9.455,0,0,0,4.8,5.016,12.3,12.3,0,0,0,9.468.394l5.129-1.878a.879.879,0,0,0-.6-1.65Zm-17.382-3.14a7.709,7.709,0,0,1,.353-5.631,5.256,5.256,0,0,1,9.582,4.324,5.256,5.256,0,0,1-7.025,2.656Z" transform="translate(0 -37.011)"/>
  </g>
</svg>
