<?xml version="1.0" encoding="utf-8"?>
<!-- Generator: Adobe Illustrator 19.2.1, SVG Export Plug-In . SVG Version: 6.00 Build 0)  -->
<svg version="1.1" id="Capa_1" xmlns="http://www.w3.org/2000/svg" xmlns:xlink="http://www.w3.org/1999/xlink" x="0px" y="0px"
	 viewBox="0 0 1283.9 228.7" style="enable-background:new 0 0 1283.9 228.7;" xml:space="preserve">
<style type="text/css">
	.st0{fill:#323232;}
	.st1{fill:#5AA159;}
	.st2{clip-path:url(#SVGID_2_);fill:#323232;}
	.st3{clip-path:url(#SVGID_2_);fill:#5AA159;}
	.st4{clip-path:url(#SVGID_2_);fill:#F2EB7E;}
	.st5{clip-path:url(#SVGID_2_);fill:#FFFFFB;}
	.st6{clip-path:url(#SVGID_2_);fill:#8A4243;}
	.st7{clip-path:url(#SVGID_2_);fill:#798C8C;}
	.st8{clip-path:url(#SVGID_2_);fill:none;stroke:#CF7C2B;stroke-width:8.204;stroke-linecap:round;stroke-miterlimit:10;}
	.st9{clip-path:url(#SVGID_2_);fill:none;stroke:#CF7C2B;stroke-width:1.3673;stroke-miterlimit:10;}
	.st10{clip-path:url(#SVGID_2_);fill:#3E3A34;}
	.st11{clip-path:url(#SVGID_2_);fill:#D0C5C7;}
	.st12{clip-path:url(#SVGID_2_);fill:#C5D0D2;}
	.st13{opacity:0.4;clip-path:url(#SVGID_2_);fill:#EBE9E8;}
	.st14{fill:#CF753C;}
	.st15{fill:#C56322;}
	.st16{clip-path:url(#SVGID_4_);fill:#323232;}
	.st17{clip-path:url(#SVGID_4_);fill:#FFFFFF;}
	.st18{clip-path:url(#SVGID_4_);fill:#F2EB7E;}
	.st19{clip-path:url(#SVGID_4_);fill:#FFFFFB;}
	.st20{clip-path:url(#SVGID_4_);fill:#8A4243;}
	.st21{clip-path:url(#SVGID_4_);fill:#798C8C;}
	.st22{clip-path:url(#SVGID_4_);fill:none;stroke:#CF7C2B;stroke-width:8.204;stroke-linecap:round;stroke-miterlimit:10;}
	.st23{clip-path:url(#SVGID_4_);fill:none;stroke:#CF7C2B;stroke-width:1.3673;stroke-miterlimit:10;}
	.st24{clip-path:url(#SVGID_4_);fill:#3E3A34;}
	.st25{clip-path:url(#SVGID_4_);fill:#D0C5C7;}
	.st26{clip-path:url(#SVGID_4_);fill:#C5D0D2;}
	.st27{opacity:0.4;clip-path:url(#SVGID_4_);fill:#EBE9E8;}
	.st28{fill:#FFFFFF;}
	.st29{clip-path:url(#SVGID_6_);fill:#323232;}
	.st30{clip-path:url(#SVGID_6_);fill:#5AA159;}
	.st31{clip-path:url(#SVGID_6_);fill:#F2EB7E;}
	.st32{clip-path:url(#SVGID_6_);fill:#FFFFFB;}
	.st33{clip-path:url(#SVGID_6_);fill:#8A4243;}
	.st34{clip-path:url(#SVGID_6_);fill:#798C8C;}
	.st35{clip-path:url(#SVGID_6_);fill:none;stroke:#CF7C2B;stroke-width:8.204;stroke-linecap:round;stroke-miterlimit:10;}
	.st36{clip-path:url(#SVGID_6_);fill:none;stroke:#CF7C2B;stroke-width:1.3673;stroke-miterlimit:10;}
	.st37{clip-path:url(#SVGID_6_);fill:#3E3A34;}
	.st38{clip-path:url(#SVGID_6_);fill:#D0C5C7;}
	.st39{clip-path:url(#SVGID_6_);fill:#C5D0D2;}
	.st40{opacity:0.4;clip-path:url(#SVGID_6_);fill:#EBE9E8;}
	.st41{clip-path:url(#SVGID_8_);fill:#C2C9D0;}
	.st42{clip-path:url(#SVGID_8_);fill:#F2EB7E;}
	.st43{clip-path:url(#SVGID_8_);fill:#FFFFFB;}
	.st44{clip-path:url(#SVGID_8_);fill:#8A4243;}
	.st45{clip-path:url(#SVGID_8_);fill:#798C8C;}
	.st46{clip-path:url(#SVGID_8_);fill:none;stroke:#CF7C2B;stroke-width:8.204;stroke-linecap:round;stroke-miterlimit:10;}
	.st47{clip-path:url(#SVGID_8_);fill:none;stroke:#CF7C2B;stroke-width:1.3673;stroke-miterlimit:10;}
	.st48{clip-path:url(#SVGID_8_);fill:#3E3A34;}
	.st49{clip-path:url(#SVGID_8_);fill:#D0C5C7;}
	.st50{opacity:0.4;clip-path:url(#SVGID_8_);fill:#EBE9E8;}
	.st51{fill:#9FA5AB;}
	.st52{fill:#C2C9D0;}
	.st53{clip-path:url(#SVGID_10_);fill:#323232;}
	.st54{clip-path:url(#SVGID_10_);fill:#5AA159;}
	.st55{clip-path:url(#SVGID_10_);fill:#F2EB7E;}
	.st56{clip-path:url(#SVGID_10_);fill:#FFFFFB;}
	.st57{clip-path:url(#SVGID_10_);fill:#8A4243;}
	.st58{clip-path:url(#SVGID_10_);fill:#798C8C;}
	.st59{clip-path:url(#SVGID_10_);fill:none;stroke:#CF7C2B;stroke-width:8.204;stroke-linecap:round;stroke-miterlimit:10;}
	.st60{clip-path:url(#SVGID_10_);fill:none;stroke:#CF7C2B;stroke-width:1.3673;stroke-miterlimit:10;}
	.st61{clip-path:url(#SVGID_10_);fill:#3E3A34;}
	.st62{clip-path:url(#SVGID_10_);fill:#D0C5C7;}
	.st63{clip-path:url(#SVGID_10_);fill:#C5D0D2;}
	.st64{opacity:0.4;clip-path:url(#SVGID_10_);fill:#EBE9E8;}
	.st65{clip-path:url(#SVGID_12_);fill:#323232;}
	.st66{clip-path:url(#SVGID_12_);fill:#FFFFFF;}
	.st67{clip-path:url(#SVGID_12_);fill:#F2EB7E;}
	.st68{clip-path:url(#SVGID_12_);fill:#FFFFFB;}
	.st69{clip-path:url(#SVGID_12_);fill:#8A4243;}
	.st70{clip-path:url(#SVGID_12_);fill:#798C8C;}
	.st71{clip-path:url(#SVGID_12_);fill:none;stroke:#CF7C2B;stroke-width:8.204;stroke-linecap:round;stroke-miterlimit:10;}
	.st72{clip-path:url(#SVGID_12_);fill:none;stroke:#CF7C2B;stroke-width:1.3673;stroke-miterlimit:10;}
	.st73{clip-path:url(#SVGID_12_);fill:#3E3A34;}
	.st74{clip-path:url(#SVGID_12_);fill:#D0C5C7;}
	.st75{clip-path:url(#SVGID_12_);fill:#C5D0D2;}
	.st76{opacity:0.4;clip-path:url(#SVGID_12_);fill:#EBE9E8;}
	.st77{clip-path:url(#SVGID_14_);fill:#323232;}
	.st78{clip-path:url(#SVGID_14_);fill:#5AA159;}
	.st79{clip-path:url(#SVGID_14_);fill:#F2EB7E;}
	.st80{clip-path:url(#SVGID_14_);fill:#FFFFFB;}
	.st81{clip-path:url(#SVGID_14_);fill:#8A4243;}
	.st82{clip-path:url(#SVGID_14_);fill:#798C8C;}
	.st83{clip-path:url(#SVGID_14_);fill:none;stroke:#CF7C2B;stroke-width:8.204;stroke-linecap:round;stroke-miterlimit:10;}
	.st84{clip-path:url(#SVGID_14_);fill:none;stroke:#CF7C2B;stroke-width:1.3673;stroke-miterlimit:10;}
	.st85{clip-path:url(#SVGID_14_);fill:#3E3A34;}
	.st86{clip-path:url(#SVGID_14_);fill:#D0C5C7;}
	.st87{clip-path:url(#SVGID_14_);fill:#C5D0D2;}
	.st88{opacity:0.4;clip-path:url(#SVGID_14_);fill:#EBE9E8;}
	.st89{fill:#5AA859;}
	.st90{fill:#D0C5C7;}
	.st91{fill:#202020;}
</style>
<rect x="-90" y="-1888.6" class="st0" width="1410.5" height="372.5"/>
<rect x="1543.4" y="-1809" class="st1" width="1916" height="583"/>
<rect x="-90" y="-2261.1" class="st1" width="1410.5" height="372.5"/>
<g>
	<g>
		<defs>
			<path id="SVGID_1_" d="M2-2513.2h164c15.8-0.4,28.1,8.7,28.4,24.4l3,135.3c0.4,15.8-12.1,28.8-27.9,29.2l-158.4,3.5
				c-15.8,0.4-28.8-12.1-29.2-27.9l-3-135.3C-21.4-2499.7-14.1-2513.5,2-2513.2z"/>
		</defs>
		<clipPath id="SVGID_2_">
			<use xlink:href="#SVGID_1_"  style="overflow:visible;"/>
		</clipPath>
		
			<rect x="20.7" y="-2489.1" transform="matrix(-0.9998 2.233031e-02 -2.233031e-02 -0.9998 546.1945 -4906.332)" class="st2" width="559.6" height="78"/>
		<path class="st3" d="M582.6-2433c0.2-0.3,0.5-0.6,0.6-1c1.3-3,7.5-18.8,6.1-37.2c-1.6-20-33.3-109.8-35-114.7
			c0-0.1-0.1-0.2-0.1-0.4c-0.3-1.5-3.5-13.3-21.4-19.6c0,0-18.8-6.3-25.4-17.7c-6.2-10.8-30.8-74.1-33.3-80.7
			c-0.1-0.4-0.2-0.8-0.2-1.2c-0.1-3.2,0.4-17.4,12.8-22.1c1.1-0.4,2-1.4,2.2-2.5c0.2-1-0.1-2.1-1.7-2.9c-3.4-1.7-18.3-7-32.3-7.4
			c-0.6,0-1.1-0.2-1.6-0.4c-3-1.7-14.9-8-25.6-10.1c-12.3-2.3-223.6,4.9-230.5,5.1c-0.1,0-0.2,0-0.4,0c-1.8,0.3-15.2,2.6-23.8,12
			c-1.7,1.9-1,4.8,1.3,5.7l14.4,5.5c0.1,0.1,0.3,0.1,0.4,0.1c1.3,0.3,9.7,3,6.5,15.3c-3.3,12.6-24.5,89.1-26.7,97.2
			c-0.1,0.5-0.4,0.9-0.7,1.3c-2.5,2.9-14.2,14.6-39.3,11.5c-0.7-0.1-1.4,0-2,0.3L7.5-2537.1c0,0-8.4,4.6-8.1,17.6
			c0.3,13.1,0.7,94.2,0.7,94.2s-1.8,19,33.3,23.3c2,0.2,3.8-1.1,4-3.1c1.6-14.3,10.5-67.5,55.1-68.5c58.1-1.3,67.9,52.2,69.4,66
			c0.2,1.8,1.8,3.2,3.6,3.1l254.3-5.7c1.8,0,3.3-1.5,3.5-3.3c0.9-13.9,7.5-67.8,58.9-69c51.8-1.2,64.2,53.3,66.5,66.6
			c0.3,1.8,2,3.1,3.8,2.9C557.5-2413.3,568.2-2416.7,582.6-2433z"/>
		<polygon class="st4" points="66,-2561.1 539,-2571.7 532.2,-2594 114,-2584.6 		"/>
		<path class="st5" d="M503.6-2738.3l56.4,130.5c0,0-27.3-9.1-32.9-20.2s-36.1-86.7-36.1-86.7S489.5-2733.8,503.6-2738.3z"/>
		<path class="st5" d="M481.2-2615.3l-93.4,2.1c0,0-10.2-0.4-10.6-11.4c-0.5-11,2.7-100.5,2.7-100.5s0-7.1,7.9-7.2
			c7.9-0.2,52.7-1.2,52.7-1.2s17.2-0.2,27.1,24.9s27.9,78.9,27.9,78.9S500.9-2615.7,481.2-2615.3z"/>
		<path class="st5" d="M364.5-2725.2l-8.5,103c0,0,0.2,9.8-12.4,10c-12.7,0.3-156.3,3.5-156.3,3.5l36.4-120l134.9-3
			C358.6-2731.7,364.9-2730.3,364.5-2725.2z"/>
		<path class="st5" d="M172.3-2740.8L128.1-2602c0,0,27.8,6.2,42.9-12.6l28.2-102.6c0,0,3.7-9-3.2-14.2
			C189-2736.6,172.3-2740.8,172.3-2740.8z"/>
		<path class="st6" d="M575.2-2590.4c0,0,9.8-1.7,13,4.8c3.2,6.6,20.2,60.2,20.2,60.2s1.1,8.2-8.6,8.4c-9.7,0.2-12.6-6.2-12.6-6.2
			l-20.2-60.2C566.9-2583.4,566.5-2591.2,575.2-2590.4z"/>
		<path class="st7" d="M612.2-2463.2c0,0,11.7,1.8,12.7,13s-0.3,24.1-0.3,24.1s0.2,7.1-11,7.7c-11.2,0.7-23.2,1.3-23.2,1.3
			s-13.3-1.8-14.8-12.5c-1.5-10.8,1.6-20.8,1.6-20.8l34.4-3.3L612.2-2463.2z"/>
		<line class="st8" x1="538" y1="-2560.9" x2="59.1" y2="-2550.2"/>
		<path class="st9" d="M366.2-2556.5l5.9,141c0,0-198.6,7.2-198.7,4.4s-3.2-142.2-3.2-142.2l8.2-55.5l39.8-128.8l154.9-3.5
			L366.2-2556.5z"/>
		
			<ellipse transform="matrix(0.9998 -2.233031e-02 2.233031e-02 0.9998 58.4403 4.2205)" class="st7" cx="218.2" cy="-2614.6" rx="9.4" ry="28.8"/>
		
			<ellipse transform="matrix(0.9998 -2.233031e-02 2.233031e-02 0.9998 53.9735 10.6159)" class="st10" cx="502.3" cy="-2411.4" rx="56.5" ry="56.5"/>
		
			<ellipse transform="matrix(0.9998 -2.233031e-02 2.233031e-02 0.9998 53.9735 10.6159)" class="st11" cx="502.3" cy="-2411.4" rx="39.4" ry="39.4"/>
		
			<ellipse transform="matrix(0.9998 -2.233031e-02 2.233031e-02 0.9998 53.9735 10.6159)" class="st7" cx="502.3" cy="-2411.4" rx="23.2" ry="23.2"/>
		
			<ellipse transform="matrix(0.9998 -2.233031e-02 2.233031e-02 0.9998 53.7873 1.5731)" class="st2" cx="97.3" cy="-2407.6" rx="45.8" ry="45.8"/>
		
			<ellipse transform="matrix(0.9998 -2.233031e-02 2.233031e-02 0.9998 53.7868 1.5581)" class="st12" cx="96.7" cy="-2407.6" rx="32" ry="32"/>
		
			<ellipse transform="matrix(0.9998 -2.233031e-02 2.233031e-02 0.9998 53.7868 1.5581)" class="st12" cx="96.7" cy="-2407.6" rx="18.9" ry="18.9"/>
		<path class="st13" d="M613-2457.7c0.1-0.5,0.2-1.1,0.5-1.5c0.5-0.7,1.6-0.8,2.5-0.5s1.5,1,2.1,1.7c3.5,4.2,5.7,9.5,6,15
			c0,0.7,0.1,1.5-0.3,2.2c-0.4,0.9-1.4,1.5-2.3,2c-10.6,5.6-23.1,7.1-35.1,5.7c-3.1-0.3-6.4-1.1-8.1-3.7c-1.2-1.8-1.2-4.1-1.1-6.2
			c0-1,0.1-2.1,0.6-3c1.1-2.2,4-2.7,6.4-3c8.6-0.9,17.2-1.9,25.8-2.8c0.8-0.1,1.6-0.2,2-0.9c0.2-0.3,0.2-0.6,0.3-0.9
			C612.6-2454.9,612.8-2456.3,613-2457.7z"/>
		
			<ellipse transform="matrix(0.9998 -2.233031e-02 2.233031e-02 0.9998 54.1057 16.148)" class="st10" cx="750.1" cy="-2414.6" rx="45.8" ry="45.8"/>
		
			<ellipse transform="matrix(0.9998 -2.233031e-02 2.233031e-02 0.9998 54.1052 16.133)" class="st11" cx="749.4" cy="-2414.6" rx="32" ry="32"/>
		
			<ellipse transform="matrix(0.9998 -2.233031e-02 2.233031e-02 0.9998 54.1052 16.133)" class="st7" cx="749.4" cy="-2414.6" rx="18.9" ry="18.9"/>
		<path class="st13" d="M734.9-2421.3c1.9-3.4,4.9-6.1,8.6-7.4s7.8-1,11.2,0.8c1.6,0.9,3,2.1,4.2,3.4c3.3,3.4,6.1,7.7,6.4,12.5
			c-1.9-1.1-4.2-0.9-6.3-0.3c-2.1,0.6-4,1.6-6.1,2.1c-4.2,1-8.6,0-12.8-1.2c-2.4-0.7-5-1.6-6-3.9
			C733.2-2417.1,733.8-2419.4,734.9-2421.3z"/>
		<path class="st13" d="M499.1-2429.4c6.1-0.4,12.3,2,16.5,6.3c4.2,4.4,6.4,10.6,6,16.7c-2.5-3.7-7.8-4.5-12.2-3.6
			c-4.4,0.9-8.5,3-12.9,3.9s-9.7-0.1-12-4c-1.4-2.4-1.4-5.3-0.6-8C485.8-2424.5,492.4-2428.9,499.1-2429.4z"/>
	</g>
	<g>
		
			<rect x="93.8" y="-2505.2" transform="matrix(9.016161e-03 1 -1 9.016161e-03 -2266.4209 -2606.2761)" class="st14" width="175.8" height="117.2"/>
		<path class="st15" d="M175.4-2534.5c0,0,64.8,119,65.7,175.2l-1.6-175.8L175.4-2534.5z"/>
		<polygon class="st14" points="122.3,-2534 147.9,-2555.8 149.9,-2336 123.9,-2358.2 		"/>
		<path class="st15" d="M127-2538l22.8,201.2c0,0.1,0.1,0,0.1,0l-2-219L127-2538z"/>
	</g>
</g>
<g>
	<path class="st1" d="M266.4-2513.1h-12.3c0,7.4,0,14.8,0,22.1l16.3,42.7l-16.9,0c0,5.8-0.1,11.6-0.1,17.4l20.4,0.1l10.3,26.1h23.6
		L266.4-2513.1z"/>
	<path class="st1" d="M324.5-2414c-8.6-7.3-12.9-17.8-12.9-31.5v-67.6h22.7v65.9c0,8.2,2.2,14.4,6.6,18.5c4.4,4.2,10.8,6.2,19.1,6.2
		c8.3,0,14.6-2.1,19-6.2c4.4-4.1,6.6-10.3,6.6-18.5v-65.9h22.7v67.6c0,13.6-4.3,24-12.8,31.4c-8.5,7.3-20.4,11-35.5,11
		C345-2403.1,333.1-2406.7,324.5-2414z"/>
	<path class="st1" d="M453.3-2495.6H420v-17.5h89.2v17.5H476v90.8h-22.7V-2495.6z"/>
	<path class="st1" d="M509-2458.4c0-19.5,4.3-33.8,13-42.8c8.7-9,21.9-13.5,39.6-13.5c17.7,0,30.9,4.5,39.6,13.5
		c8.7,9,13,23.3,13,42.8c0,36.9-17.6,55.3-52.7,55.3C526.5-2403.1,509-2421.5,509-2458.4z M584-2431.3c4.8-5.9,7.2-14.9,7.2-27.2
		c0-13.3-2.4-22.9-7.1-28.5c-4.7-5.7-12.2-8.5-22.5-8.5c-10.3,0-17.8,2.8-22.5,8.5c-4.7,5.7-7.1,15.2-7.1,28.5
		c0,12.2,2.4,21.3,7.2,27.2c4.8,5.9,12.3,8.8,22.4,8.8C571.7-2422.4,579.2-2425.4,584-2431.3z"/>
	<path class="st1" d="M630.1-2513.1h50.8c12.2,0,21.5,3.4,27.8,10.3c6.3,6.8,9.4,15.9,9.4,27.1c0,7.3-1.5,13.7-4.6,19.3
		c-3.1,5.6-7.5,10-13.2,13c-5.7,3.1-12.4,4.6-20,4.6h-27.4v34h-22.7V-2513.1z M675.5-2456.7c6.4,0,11.3-1.7,14.6-5c3.4-3.4,5-8,5-14
		c0-6.3-1.6-11.1-4.7-14.4c-3.1-3.3-7.9-5-14.1-5h-23.6v38.4H675.5z"/>
	<path class="st1" d="M751.9-2513.1h24.9l41.2,108.3h-23.6l-10.3-26.1h-39.9l-10.1,26.1h-23.7L751.9-2513.1z M780.8-2448.3
		l-16.7-43.6l-16.5,43.6H780.8z"/>
	<path class="st1" d="M833.8-2513.1h52c12.1,0,21.2,3.2,27.2,9.6c6,6.4,9,15.3,9,26.7c0,7.3-1.9,13.6-5.6,18.8
		c-3.8,5.3-9.1,9.1-15.9,11.4c1.7,1.5,3.1,3,4.1,4.6c1.1,1.6,2.2,3.9,3.4,6.8l13.1,30.3h-23.6l-12.8-29.1c-1.1-2.6-2.4-4.3-3.8-5.3
		c-1.4-1-3.6-1.4-6.6-1.4h-17.8v35.8h-22.7V-2513.1z M879.9-2459.4c6.2,0,10.9-1.4,14.1-4.1c3.3-2.7,4.9-7.1,4.9-13.2
		s-1.5-10.5-4.4-13.3c-2.9-2.8-7.3-4.2-13.3-4.2h-24.7v34.8H879.9z"/>
	<path class="st1" d="M958.5-2495.6h-33.3v-17.5h89.2v17.5h-33.1v90.8h-22.7V-2495.6z"/>
	<path class="st1" d="M1104.3-2419.2v-34.5h-28.9v-9.4h40.9v51.5c-9,5.7-21.9,8.6-38.7,8.6c-17,0-30-4.8-38.8-14.3
		c-8.8-9.5-13.2-22.6-13.2-39.2c0-18.4,4.2-32.7,12.7-42.9c8.5-10.2,21.5-15.3,39.1-15.3c11.5,0,22,1.7,31.5,5v12.1
		c-9.5-3.6-19.6-5.4-30.3-5.4c-14,0-24.1,3.9-30.1,11.8c-6.1,7.9-9.1,19.4-9.1,34.7c0,13.7,3.1,24.1,9.4,31.1
		c6.3,7.1,16.1,10.6,29.6,10.6C1088.2-2414.8,1096.8-2416.3,1104.3-2419.2z"/>
	<path class="st1" d="M1220.8-2416.5c-8.1,9-20.7,13.5-37.8,13.5c-17,0-29.6-4.5-37.8-13.5c-8.1-9-12.2-23.1-12.2-42.4
		c0-19.3,4.1-33.4,12.2-42.4c8.1-9,20.7-13.5,37.8-13.5c17,0,29.6,4.5,37.8,13.5c8.1,9,12.2,23.1,12.2,42.4
		C1233-2439.6,1228.9-2425.5,1220.8-2416.5z M1215.3-2484.7c-2.6-6.4-6.5-11.1-11.8-14c-5.3-2.9-12.1-4.3-20.5-4.3
		c-8.4,0-15.3,1.4-20.5,4.3c-5.3,2.9-9.2,7.5-11.8,14c-2.6,6.4-3.9,15.1-3.9,25.8s1.3,19.4,3.9,25.8c2.6,6.4,6.5,11.1,11.8,14
		c5.3,2.9,12.1,4.3,20.5,4.3c8.4,0,15.3-1.4,20.5-4.3c5.3-2.9,9.2-7.5,11.8-14c2.6-6.4,3.9-15.1,3.9-25.8
		S1217.9-2478.3,1215.3-2484.7z"/>
	<path class="st1" d="M1265-2415.7v10.9h-15.1v-10.9H1265z M1264.3-2513.1h-13.8v26.4l1,56h11.8l1-56V-2513.1z"/>
</g>
<g>
	<g>
		<defs>
			<path id="SVGID_3_" d="M10-2123.2h164c15.8-0.4,28.1,8.7,28.4,24.4l3,135.3c0.4,15.8-12.1,28.8-27.9,29.2l-158.4,3.5
				c-15.8,0.4-28.8-12.1-29.2-27.9l-3-135.3C-13.4-2109.7-6.1-2123.5,10-2123.2z"/>
		</defs>
		<clipPath id="SVGID_4_">
			<use xlink:href="#SVGID_3_"  style="overflow:visible;"/>
		</clipPath>
		
			<rect x="28.7" y="-2099.1" transform="matrix(-0.9998 2.233031e-02 -2.233031e-02 -0.9998 570.9012 -4126.6079)" class="st16" width="559.6" height="78"/>
		<path class="st17" d="M590.6-2043c0.2-0.3,0.5-0.6,0.6-1c1.3-3,7.5-18.8,6.1-37.2c-1.6-20-33.3-109.8-35-114.7
			c0-0.1-0.1-0.2-0.1-0.4c-0.3-1.5-3.5-13.3-21.4-19.6c0,0-18.8-6.3-25.4-17.7c-6.2-10.8-30.8-74.1-33.3-80.7
			c-0.1-0.4-0.2-0.8-0.2-1.2c-0.1-3.2,0.4-17.4,12.8-22.1c1.1-0.4,2-1.4,2.2-2.5c0.2-1-0.1-2.1-1.7-2.9c-3.4-1.7-18.3-7-32.3-7.4
			c-0.6,0-1.1-0.2-1.6-0.4c-3-1.7-14.9-8-25.6-10.1c-12.3-2.3-223.6,4.9-230.5,5.1c-0.1,0-0.2,0-0.4,0c-1.8,0.3-15.2,2.6-23.8,12
			c-1.7,1.9-1,4.8,1.3,5.7l14.4,5.5c0.1,0.1,0.3,0.1,0.4,0.1c1.3,0.3,9.7,3,6.5,15.3c-3.3,12.6-24.5,89.1-26.7,97.2
			c-0.1,0.5-0.4,0.9-0.7,1.3c-2.5,2.9-14.2,14.6-39.3,11.5c-0.7-0.1-1.4,0-2,0.3l-119.3,59.6c0,0-8.4,4.6-8.1,17.6
			c0.3,13.1,0.7,94.2,0.7,94.2s-1.8,19,33.3,23.3c2,0.2,3.8-1.1,4-3.1c1.6-14.3,10.5-67.5,55.1-68.5c58.1-1.3,67.9,52.2,69.4,66
			c0.2,1.8,1.8,3.2,3.6,3.1l254.3-5.7c1.8,0,3.3-1.5,3.5-3.3c0.9-13.9,7.5-67.8,58.9-69c51.8-1.2,64.2,53.3,66.5,66.6
			c0.3,1.8,2,3.1,3.8,2.9C565.5-2023.3,576.2-2026.7,590.6-2043z"/>
		<polygon class="st18" points="74,-2171.1 547,-2181.7 540.2,-2204 122,-2194.6 		"/>
		<path class="st19" d="M511.6-2348.3l56.4,130.5c0,0-27.3-9.1-32.9-20.2s-36.1-86.7-36.1-86.7S497.5-2343.8,511.6-2348.3z"/>
		<path class="st19" d="M489.2-2225.3l-93.4,2.1c0,0-10.2-0.4-10.6-11.4c-0.5-11,2.7-100.5,2.7-100.5s0-7.1,7.9-7.2
			c7.9-0.2,52.7-1.2,52.7-1.2s17.2-0.2,27.1,24.9s27.9,78.9,27.9,78.9S508.9-2225.7,489.2-2225.3z"/>
		<path class="st19" d="M372.5-2335.2l-8.5,103c0,0,0.2,9.8-12.4,10c-12.7,0.3-156.3,3.5-156.3,3.5l36.4-120l134.9-3
			C366.6-2341.7,372.9-2340.3,372.5-2335.2z"/>
		<path class="st19" d="M180.3-2350.8L136.1-2212c0,0,27.8,6.2,42.9-12.6l28.2-102.6c0,0,3.7-9-3.2-14.2
			C197-2346.6,180.3-2350.8,180.3-2350.8z"/>
		<path class="st20" d="M583.2-2200.4c0,0,9.8-1.7,13,4.8c3.2,6.6,20.2,60.2,20.2,60.2s1.1,8.2-8.6,8.4c-9.7,0.2-12.6-6.2-12.6-6.2
			l-20.2-60.2C574.9-2193.4,574.5-2201.2,583.2-2200.4z"/>
		<path class="st21" d="M620.2-2073.2c0,0,11.7,1.8,12.7,13s-0.3,24.1-0.3,24.1s0.2,7.1-11,7.7c-11.2,0.7-23.2,1.3-23.2,1.3
			s-13.3-1.8-14.8-12.5c-1.5-10.8,1.6-20.8,1.6-20.8l34.4-3.3L620.2-2073.2z"/>
		<line class="st22" x1="546" y1="-2170.9" x2="67.1" y2="-2160.2"/>
		<path class="st23" d="M374.2-2166.5l5.9,141c0,0-198.6,7.2-198.7,4.4c-0.1-2.8-3.2-142.2-3.2-142.2l8.2-55.5l39.8-128.8l154.9-3.5
			L374.2-2166.5z"/>
		
			<ellipse transform="matrix(0.9998 -2.233031e-02 2.233031e-02 0.9998 49.7335 4.4963)" class="st21" cx="226.2" cy="-2224.6" rx="9.4" ry="28.8"/>
		
			<ellipse transform="matrix(0.9998 -2.233031e-02 2.233031e-02 0.9998 45.2666 10.8917)" class="st24" cx="510.3" cy="-2021.4" rx="56.5" ry="56.5"/>
		
			<ellipse transform="matrix(0.9998 -2.233031e-02 2.233031e-02 0.9998 45.2666 10.8917)" class="st25" cx="510.3" cy="-2021.4" rx="39.4" ry="39.4"/>
		
			<ellipse transform="matrix(0.9998 -2.233031e-02 2.233031e-02 0.9998 45.2666 10.8917)" class="st21" cx="510.3" cy="-2021.4" rx="23.2" ry="23.2"/>
		
			<ellipse transform="matrix(0.9998 -2.233031e-02 2.233031e-02 0.9998 45.0805 1.849)" class="st16" cx="105.3" cy="-2017.6" rx="45.8" ry="45.8"/>
		
			<ellipse transform="matrix(0.9998 -2.233031e-02 2.233031e-02 0.9998 45.08 1.834)" class="st26" cx="104.7" cy="-2017.6" rx="32" ry="32"/>
		
			<ellipse transform="matrix(0.9998 -2.233031e-02 2.233031e-02 0.9998 45.08 1.834)" class="st26" cx="104.7" cy="-2017.6" rx="18.9" ry="18.9"/>
		<path class="st27" d="M621-2067.7c0.1-0.5,0.2-1.1,0.5-1.5c0.5-0.7,1.6-0.8,2.5-0.5s1.5,1,2.1,1.7c3.5,4.2,5.7,9.5,6,15
			c0,0.7,0.1,1.5-0.3,2.2c-0.4,0.9-1.4,1.5-2.3,2c-10.6,5.6-23.1,7.1-35.1,5.7c-3.1-0.3-6.4-1.1-8.1-3.7c-1.2-1.8-1.2-4.1-1.1-6.2
			c0-1,0.1-2.1,0.6-3c1.1-2.2,4-2.7,6.4-3c8.6-0.9,17.2-1.9,25.8-2.8c0.8-0.1,1.6-0.2,2-0.9c0.2-0.3,0.2-0.6,0.3-0.9
			C620.6-2064.9,620.8-2066.3,621-2067.7z"/>
		
			<ellipse transform="matrix(0.9998 -2.233031e-02 2.233031e-02 0.9998 45.3988 16.4239)" class="st24" cx="758.1" cy="-2024.6" rx="45.8" ry="45.8"/>
		
			<ellipse transform="matrix(0.9998 -2.233031e-02 2.233031e-02 0.9998 45.3983 16.4088)" class="st25" cx="757.4" cy="-2024.6" rx="32" ry="32"/>
		
			<ellipse transform="matrix(0.9998 -2.233031e-02 2.233031e-02 0.9998 45.3983 16.4088)" class="st21" cx="757.4" cy="-2024.6" rx="18.9" ry="18.9"/>
		<path class="st27" d="M742.9-2031.3c1.9-3.4,4.9-6.1,8.6-7.4c3.6-1.3,7.8-1,11.2,0.8c1.6,0.9,3,2.1,4.2,3.4
			c3.3,3.4,6.1,7.7,6.4,12.5c-1.9-1.1-4.2-0.9-6.3-0.3c-2.1,0.6-4,1.6-6.1,2.1c-4.2,1-8.6,0-12.8-1.2c-2.4-0.7-5-1.6-6-3.9
			C741.2-2027.1,741.8-2029.4,742.9-2031.3z"/>
		<path class="st27" d="M507.1-2039.4c6.1-0.4,12.3,2,16.5,6.3c4.2,4.4,6.4,10.6,6,16.7c-2.5-3.7-7.8-4.5-12.2-3.6
			c-4.4,0.9-8.5,3-12.9,3.9s-9.7-0.1-12-4c-1.4-2.4-1.4-5.3-0.6-8C493.8-2034.5,500.4-2038.9,507.1-2039.4z"/>
	</g>
	<g>
		
			<rect x="101.8" y="-2115.2" transform="matrix(9.016161e-03 1 -1 9.016161e-03 -1868.5089 -2227.792)" class="st14" width="175.8" height="117.2"/>
		<path class="st15" d="M183.4-2144.5c0,0,64.8,119,65.7,175.2l-1.6-175.8L183.4-2144.5z"/>
		<polygon class="st14" points="130.3,-2144 155.9,-2165.8 157.9,-1946 131.9,-1968.2 		"/>
		<path class="st15" d="M135-2148l22.8,201.2c0,0.1,0.1,0,0.1,0l-2-219L135-2148z"/>
	</g>
</g>
<g>
	<path class="st28" d="M274.4-2123.1h-12.3c0,7.4,0,14.8,0,22.1l16.3,42.7l-16.9,0c0,5.8-0.1,11.6-0.1,17.4l20.4,0.1l10.3,26.1h23.6
		L274.4-2123.1z"/>
	<path class="st28" d="M332.5-2024c-8.6-7.3-12.9-17.8-12.9-31.5v-67.6h22.7v65.9c0,8.2,2.2,14.4,6.6,18.5
		c4.4,4.2,10.8,6.2,19.1,6.2c8.3,0,14.6-2.1,19-6.2c4.4-4.1,6.6-10.3,6.6-18.5v-65.9h22.7v67.6c0,13.6-4.3,24-12.8,31.4
		c-8.5,7.3-20.4,11-35.5,11C353-2013.1,341.1-2016.7,332.5-2024z"/>
	<path class="st28" d="M461.3-2105.6H428v-17.5h89.2v17.5H484v90.8h-22.7V-2105.6z"/>
	<path class="st28" d="M517-2068.4c0-19.5,4.3-33.8,13-42.8c8.7-9,21.9-13.5,39.6-13.5c17.7,0,30.9,4.5,39.6,13.5
		c8.7,9,13,23.3,13,42.8c0,36.9-17.6,55.3-52.7,55.3C534.5-2013.1,517-2031.5,517-2068.4z M592-2041.3c4.8-5.9,7.2-14.9,7.2-27.2
		c0-13.3-2.4-22.9-7.1-28.5c-4.7-5.7-12.2-8.5-22.5-8.5c-10.3,0-17.8,2.8-22.5,8.5c-4.7,5.7-7.1,15.2-7.1,28.5
		c0,12.2,2.4,21.3,7.2,27.2c4.8,5.9,12.3,8.8,22.4,8.8C579.7-2032.4,587.2-2035.4,592-2041.3z"/>
	<path class="st28" d="M638.1-2123.1h50.8c12.2,0,21.5,3.4,27.8,10.3c6.3,6.8,9.4,15.9,9.4,27.1c0,7.3-1.5,13.7-4.6,19.3
		c-3.1,5.6-7.5,10-13.2,13c-5.7,3.1-12.4,4.6-20,4.6h-27.4v34h-22.7V-2123.1z M683.5-2066.7c6.4,0,11.3-1.7,14.6-5c3.4-3.4,5-8,5-14
		c0-6.3-1.6-11.1-4.7-14.4c-3.1-3.3-7.9-5-14.1-5h-23.6v38.4H683.5z"/>
	<path class="st28" d="M759.9-2123.1h24.9l41.2,108.3h-23.6l-10.3-26.1h-39.9l-10.1,26.1h-23.7L759.9-2123.1z M788.8-2058.3
		l-16.7-43.6l-16.5,43.6H788.8z"/>
	<path class="st28" d="M841.8-2123.1h52c12.1,0,21.2,3.2,27.2,9.6c6,6.4,9,15.3,9,26.7c0,7.3-1.9,13.6-5.6,18.8
		c-3.8,5.3-9.1,9.1-15.9,11.4c1.7,1.5,3.1,3,4.1,4.6c1.1,1.6,2.2,3.9,3.4,6.8l13.1,30.3h-23.6l-12.8-29.1c-1.1-2.6-2.4-4.3-3.8-5.3
		c-1.4-1-3.6-1.4-6.6-1.4h-17.8v35.8h-22.7V-2123.1z M887.9-2069.4c6.2,0,10.9-1.4,14.1-4.1c3.3-2.7,4.9-7.1,4.9-13.2
		s-1.5-10.5-4.4-13.3c-2.9-2.8-7.3-4.2-13.3-4.2h-24.7v34.8H887.9z"/>
	<path class="st28" d="M966.5-2105.6h-33.3v-17.5h89.2v17.5h-33.1v90.8h-22.7V-2105.6z"/>
	<path class="st28" d="M1112.3-2029.2v-34.5h-28.9v-9.4h40.9v51.5c-9,5.7-21.9,8.6-38.7,8.6c-17,0-30-4.8-38.8-14.3
		c-8.8-9.5-13.2-22.6-13.2-39.2c0-18.4,4.2-32.7,12.7-42.9c8.5-10.2,21.5-15.3,39.1-15.3c11.5,0,22,1.7,31.5,5v12.1
		c-9.5-3.6-19.6-5.4-30.3-5.4c-14,0-24.1,3.9-30.1,11.8c-6.1,7.9-9.1,19.4-9.1,34.7c0,13.7,3.1,24.1,9.4,31.1
		c6.3,7.1,16.1,10.6,29.6,10.6C1096.2-2024.8,1104.8-2026.3,1112.3-2029.2z"/>
	<path class="st28" d="M1228.8-2026.5c-8.1,9-20.7,13.5-37.8,13.5c-17,0-29.6-4.5-37.8-13.5c-8.1-9-12.2-23.1-12.2-42.4
		c0-19.3,4.1-33.4,12.2-42.4c8.1-9,20.7-13.5,37.8-13.5c17,0,29.6,4.5,37.8,13.5c8.1,9,12.2,23.1,12.2,42.4
		C1241-2049.6,1236.9-2035.5,1228.8-2026.5z M1223.3-2094.7c-2.6-6.4-6.5-11.1-11.8-14c-5.3-2.9-12.1-4.3-20.5-4.3
		c-8.4,0-15.3,1.4-20.5,4.3c-5.3,2.9-9.2,7.5-11.8,14c-2.6,6.4-3.9,15.1-3.9,25.8s1.3,19.4,3.9,25.8c2.6,6.5,6.5,11.1,11.8,14
		c5.3,2.9,12.1,4.3,20.5,4.3c8.4,0,15.3-1.4,20.5-4.3c5.3-2.9,9.2-7.5,11.8-14c2.6-6.4,3.9-15.1,3.9-25.8
		S1225.9-2088.3,1223.3-2094.7z"/>
	<path class="st28" d="M1273-2025.7v10.9h-15.1v-10.9H1273z M1272.3-2123.1h-13.8v26.4l1,56h11.8l1-56V-2123.1z"/>
</g>
<g>
	<g>
		<defs>
			<path id="SVGID_5_" d="M10-1774.2h164c15.8-0.4,28.1,8.7,28.4,24.4l3,135.3c0.4,15.8-12.1,28.8-27.9,29.2l-158.4,3.5
				c-15.8,0.4-28.8-12.1-29.2-27.9l-3-135.3C-13.4-1760.7-6.1-1774.5,10-1774.2z"/>
		</defs>
		<clipPath id="SVGID_6_">
			<use xlink:href="#SVGID_5_"  style="overflow:visible;"/>
		</clipPath>
		
			<rect x="28.7" y="-1750.1" transform="matrix(-0.9998 2.233031e-02 -2.233031e-02 -0.9998 578.6945 -3428.6951)" class="st29" width="559.6" height="78"/>
		<path class="st30" d="M590.6-1694c0.2-0.3,0.5-0.6,0.6-1c1.3-3,7.5-18.8,6.1-37.2c-1.6-20-33.3-109.8-35-114.7
			c0-0.1-0.1-0.2-0.1-0.4c-0.3-1.5-3.5-13.3-21.4-19.6c0,0-18.8-6.3-25.4-17.7c-6.2-10.8-30.8-74.1-33.3-80.7
			c-0.1-0.4-0.2-0.8-0.2-1.2c-0.1-3.2,0.4-17.4,12.8-22.1c1.1-0.4,2-1.4,2.2-2.5c0.2-1-0.1-2.1-1.7-2.9c-3.4-1.7-18.3-7-32.3-7.4
			c-0.6,0-1.1-0.2-1.6-0.4c-3-1.7-14.9-8-25.6-10.1c-12.3-2.3-223.6,4.9-230.5,5.1c-0.1,0-0.2,0-0.4,0c-1.8,0.3-15.2,2.6-23.8,12
			c-1.7,1.9-1,4.8,1.3,5.7l14.4,5.5c0.1,0.1,0.3,0.1,0.4,0.1c1.3,0.3,9.7,3,6.5,15.3c-3.3,12.6-24.5,89.1-26.7,97.2
			c-0.1,0.5-0.4,0.9-0.7,1.3c-2.5,2.9-14.2,14.6-39.3,11.5c-0.7-0.1-1.4,0-2,0.3l-119.3,59.6c0,0-8.4,4.6-8.1,17.6
			c0.3,13.1,0.7,94.2,0.7,94.2s-1.8,19,33.3,23.3c2,0.2,3.8-1.1,4-3.1c1.6-14.3,10.5-67.5,55.1-68.5c58.1-1.3,67.9,52.2,69.4,66
			c0.2,1.8,1.8,3.2,3.6,3.1l254.3-5.7c1.8,0,3.3-1.5,3.5-3.3c0.9-13.9,7.5-67.8,58.9-69c51.8-1.2,64.2,53.3,66.5,66.6
			c0.3,1.8,2,3.1,3.8,2.9C565.5-1674.3,576.2-1677.7,590.6-1694z"/>
		<polygon class="st31" points="74,-1822.1 547,-1832.7 540.2,-1855 122,-1845.6 		"/>
		<path class="st32" d="M511.6-1999.3l56.4,130.5c0,0-27.3-9.1-32.9-20.2s-36.1-86.7-36.1-86.7S497.5-1994.8,511.6-1999.3z"/>
		<path class="st32" d="M489.2-1876.3l-93.4,2.1c0,0-10.2-0.4-10.6-11.4c-0.5-11,2.7-100.5,2.7-100.5s0-7.1,7.9-7.2
			c7.9-0.2,52.7-1.2,52.7-1.2s17.2-0.2,27.1,24.9s27.9,78.9,27.9,78.9S508.9-1876.7,489.2-1876.3z"/>
		<path class="st32" d="M372.5-1986.2l-8.5,103c0,0,0.2,9.8-12.4,10c-12.7,0.3-156.3,3.5-156.3,3.5l36.4-120l134.9-3
			C366.6-1992.7,372.9-1991.3,372.5-1986.2z"/>
		<path class="st32" d="M180.3-2001.8L136.1-1863c0,0,27.8,6.2,42.9-12.6l28.2-102.6c0,0,3.7-9-3.2-14.2
			C197-1997.6,180.3-2001.8,180.3-2001.8z"/>
		<path class="st33" d="M583.2-1851.4c0,0,9.8-1.7,13,4.8c3.2,6.6,20.2,60.2,20.2,60.2s1.1,8.2-8.6,8.4c-9.7,0.2-12.6-6.2-12.6-6.2
			l-20.2-60.2C574.9-1844.4,574.5-1852.2,583.2-1851.4z"/>
		<path class="st34" d="M620.2-1724.2c0,0,11.7,1.8,12.7,13s-0.3,24.1-0.3,24.1s0.2,7.1-11,7.7c-11.2,0.7-23.2,1.3-23.2,1.3
			s-13.3-1.8-14.8-12.5c-1.5-10.8,1.6-20.8,1.6-20.8l34.4-3.3L620.2-1724.2z"/>
		<line class="st35" x1="546" y1="-1821.9" x2="67.1" y2="-1811.2"/>
		<path class="st36" d="M374.2-1817.5l5.9,141c0,0-198.6,7.2-198.7,4.4c-0.1-2.8-3.2-142.2-3.2-142.2l8.2-55.5l39.8-128.8l154.9-3.5
			L374.2-1817.5z"/>
		
			<ellipse transform="matrix(0.9998 -2.233031e-02 2.233031e-02 0.9998 41.9402 4.5834)" class="st34" cx="226.2" cy="-1875.6" rx="9.4" ry="28.8"/>
		
			<ellipse transform="matrix(0.9998 -2.233031e-02 2.233031e-02 0.9998 37.4734 10.9788)" class="st37" cx="510.3" cy="-1672.4" rx="56.5" ry="56.5"/>
		
			<ellipse transform="matrix(0.9998 -2.233031e-02 2.233031e-02 0.9998 37.4734 10.9788)" class="st38" cx="510.3" cy="-1672.4" rx="39.4" ry="39.4"/>
		
			<ellipse transform="matrix(0.9998 -2.233031e-02 2.233031e-02 0.9998 37.4734 10.9788)" class="st34" cx="510.3" cy="-1672.4" rx="23.2" ry="23.2"/>
		
			<ellipse transform="matrix(0.9998 -2.233031e-02 2.233031e-02 0.9998 37.2872 1.9361)" class="st29" cx="105.3" cy="-1668.6" rx="45.8" ry="45.8"/>
		
			<ellipse transform="matrix(0.9998 -2.233031e-02 2.233031e-02 0.9998 37.2867 1.921)" class="st39" cx="104.7" cy="-1668.6" rx="32" ry="32"/>
		
			<ellipse transform="matrix(0.9998 -2.233031e-02 2.233031e-02 0.9998 37.2867 1.921)" class="st39" cx="104.7" cy="-1668.6" rx="18.9" ry="18.9"/>
		<path class="st40" d="M621-1718.7c0.1-0.5,0.2-1.1,0.5-1.5c0.5-0.7,1.6-0.8,2.5-0.5c0.8,0.3,1.5,1,2.1,1.7c3.5,4.2,5.7,9.5,6,15
			c0,0.7,0.1,1.5-0.3,2.2c-0.4,0.9-1.4,1.5-2.3,2c-10.6,5.6-23.1,7.1-35.1,5.7c-3.1-0.3-6.4-1.1-8.1-3.7c-1.2-1.8-1.2-4.1-1.1-6.2
			c0-1,0.1-2.1,0.6-3c1.1-2.2,4-2.7,6.4-3c8.6-0.9,17.2-1.9,25.8-2.8c0.8-0.1,1.6-0.2,2-0.9c0.2-0.3,0.2-0.6,0.3-0.9
			C620.6-1715.9,620.8-1717.3,621-1718.7z"/>
		
			<ellipse transform="matrix(0.9998 -2.233031e-02 2.233031e-02 0.9998 37.6056 16.5109)" class="st37" cx="758.1" cy="-1675.6" rx="45.8" ry="45.8"/>
		
			<ellipse transform="matrix(0.9998 -2.233031e-02 2.233031e-02 0.9998 37.6051 16.4959)" class="st38" cx="757.4" cy="-1675.6" rx="32" ry="32"/>
		
			<ellipse transform="matrix(0.9998 -2.233031e-02 2.233031e-02 0.9998 37.6051 16.4959)" class="st34" cx="757.4" cy="-1675.6" rx="18.9" ry="18.9"/>
		<path class="st40" d="M742.9-1682.3c1.9-3.4,4.9-6.1,8.6-7.4c3.6-1.3,7.8-1,11.2,0.8c1.6,0.9,3,2.1,4.2,3.4
			c3.3,3.4,6.1,7.7,6.4,12.5c-1.9-1.1-4.2-0.9-6.3-0.3c-2.1,0.6-4,1.6-6.1,2.1c-4.2,1-8.6,0-12.8-1.2c-2.4-0.7-5-1.6-6-3.9
			C741.2-1678.1,741.8-1680.4,742.9-1682.3z"/>
		<path class="st40" d="M507.1-1690.4c6.1-0.4,12.3,2,16.5,6.3c4.2,4.4,6.4,10.6,6,16.7c-2.5-3.7-7.8-4.5-12.2-3.6
			c-4.4,0.9-8.5,3-12.9,3.9s-9.7-0.1-12-4c-1.4-2.4-1.4-5.3-0.6-8C493.8-1685.5,500.4-1689.9,507.1-1690.4z"/>
	</g>
	<g>
		
			<rect x="101.8" y="-1766.2" transform="matrix(9.016161e-03 1 -1 9.016161e-03 -1519.5231 -1881.9387)" class="st14" width="175.8" height="117.2"/>
		<path class="st15" d="M183.4-1795.5c0,0,64.8,119,65.7,175.2l-1.6-175.8L183.4-1795.5z"/>
		<polygon class="st14" points="130.3,-1795 155.9,-1816.8 157.9,-1597 131.9,-1619.2 		"/>
		<path class="st15" d="M135-1799l22.8,201.2c0,0.1,0.1,0,0.1,0l-2-219L135-1799z"/>
	</g>
</g>
<g>
	<path class="st1" d="M274.4-1774.1h-12.3c0,7.4,0,14.8,0,22.1l16.3,42.7l-16.9,0c0,5.8-0.1,11.6-0.1,17.4l20.4,0.1l10.3,26.1h23.6
		L274.4-1774.1z"/>
	<path class="st1" d="M332.5-1675c-8.6-7.3-12.9-17.8-12.9-31.5v-67.6h22.7v65.9c0,8.2,2.2,14.4,6.6,18.5c4.4,4.2,10.8,6.2,19.1,6.2
		c8.3,0,14.6-2.1,19-6.2c4.4-4.1,6.6-10.3,6.6-18.5v-65.9h22.7v67.6c0,13.6-4.3,24-12.8,31.4c-8.5,7.3-20.4,11-35.5,11
		C353-1664.1,341.1-1667.7,332.5-1675z"/>
	<path class="st1" d="M461.3-1756.6H428v-17.5h89.2v17.5H484v90.8h-22.7V-1756.6z"/>
	<path class="st1" d="M517-1719.4c0-19.5,4.3-33.8,13-42.8c8.7-9,21.9-13.5,39.6-13.5c17.7,0,30.9,4.5,39.6,13.5
		c8.7,9,13,23.3,13,42.8c0,36.9-17.6,55.3-52.7,55.3C534.5-1664.1,517-1682.5,517-1719.4z M592-1692.3c4.8-5.9,7.2-14.9,7.2-27.2
		c0-13.3-2.4-22.9-7.1-28.5c-4.7-5.7-12.2-8.5-22.5-8.5c-10.3,0-17.8,2.8-22.5,8.5c-4.7,5.7-7.1,15.2-7.1,28.5
		c0,12.2,2.4,21.3,7.2,27.2c4.8,5.9,12.3,8.8,22.4,8.8C579.7-1683.4,587.2-1686.4,592-1692.3z"/>
	<path class="st1" d="M638.1-1774.1h50.8c12.2,0,21.5,3.4,27.8,10.3c6.3,6.8,9.4,15.9,9.4,27.1c0,7.3-1.5,13.7-4.6,19.3
		c-3.1,5.6-7.5,10-13.2,13c-5.7,3.1-12.4,4.6-20,4.6h-27.4v34h-22.7V-1774.1z M683.5-1717.7c6.4,0,11.3-1.7,14.6-5c3.4-3.4,5-8,5-14
		c0-6.3-1.6-11.1-4.7-14.4c-3.1-3.3-7.9-5-14.1-5h-23.6v38.4H683.5z"/>
	<path class="st1" d="M759.9-1774.1h24.9l41.2,108.3h-23.6l-10.3-26.1h-39.9l-10.1,26.1h-23.7L759.9-1774.1z M788.8-1709.3
		l-16.7-43.6l-16.5,43.6H788.8z"/>
	<path class="st1" d="M841.8-1774.1h52c12.1,0,21.2,3.2,27.2,9.6c6,6.4,9,15.3,9,26.7c0,7.3-1.9,13.6-5.6,18.8
		c-3.8,5.3-9.1,9.1-15.9,11.4c1.7,1.5,3.1,3,4.1,4.6c1.1,1.6,2.2,3.9,3.4,6.8l13.1,30.3h-23.6l-12.8-29.1c-1.1-2.6-2.4-4.3-3.8-5.3
		c-1.4-1-3.6-1.4-6.6-1.4h-17.8v35.8h-22.7V-1774.1z M887.9-1720.4c6.2,0,10.9-1.4,14.1-4.1c3.3-2.7,4.9-7.1,4.9-13.2
		c0-6.1-1.5-10.5-4.4-13.3c-2.9-2.8-7.3-4.2-13.3-4.2h-24.7v34.8H887.9z"/>
	<path class="st1" d="M966.5-1756.6h-33.3v-17.5h89.2v17.5h-33.1v90.8h-22.7V-1756.6z"/>
	<path class="st1" d="M1112.3-1680.2v-34.5h-28.9v-9.4h40.9v51.5c-9,5.7-21.9,8.6-38.7,8.6c-17,0-30-4.8-38.8-14.3
		c-8.8-9.5-13.2-22.6-13.2-39.2c0-18.4,4.2-32.7,12.7-42.9c8.5-10.2,21.5-15.3,39.1-15.3c11.5,0,22,1.7,31.5,5v12.1
		c-9.5-3.6-19.6-5.4-30.3-5.4c-14,0-24.1,3.9-30.1,11.8c-6.1,7.9-9.1,19.4-9.1,34.7c0,13.7,3.1,24.1,9.4,31.1
		c6.3,7.1,16.1,10.6,29.6,10.6C1096.2-1675.8,1104.8-1677.3,1112.3-1680.2z"/>
	<path class="st1" d="M1228.8-1677.5c-8.1,9-20.7,13.5-37.8,13.5c-17,0-29.6-4.5-37.8-13.5c-8.1-9-12.2-23.1-12.2-42.4
		c0-19.3,4.1-33.4,12.2-42.4c8.1-9,20.7-13.5,37.8-13.5c17,0,29.6,4.5,37.8,13.5c8.1,9,12.2,23.1,12.2,42.4
		C1241-1700.6,1236.9-1686.5,1228.8-1677.5z M1223.3-1745.7c-2.6-6.4-6.5-11.1-11.8-14c-5.3-2.9-12.1-4.3-20.5-4.3
		c-8.4,0-15.3,1.4-20.5,4.3c-5.3,2.9-9.2,7.5-11.8,14c-2.6,6.5-3.9,15.1-3.9,25.8s1.3,19.4,3.9,25.8c2.6,6.5,6.5,11.1,11.8,14
		c5.3,2.9,12.1,4.3,20.5,4.3c8.4,0,15.3-1.4,20.5-4.3c5.3-2.9,9.2-7.5,11.8-14c2.6-6.4,3.9-15.1,3.9-25.8
		S1225.9-1739.3,1223.3-1745.7z"/>
	<path class="st1" d="M1273-1676.7v10.9h-15.1v-10.9H1273z M1272.3-1774.1h-13.8v26.4l1,56h11.8l1-56V-1774.1z"/>
</g>
<g>
	<g>
		<defs>
			<path id="SVGID_7_" d="M9,47.9h164c15.8-0.4,28.1,8.7,28.4,24.4l3,135.3c0.4,15.8-12.1,28.8-27.9,29.2l-158.4,3.5
				c-15.8,0.4-28.8-12.1-29.2-27.9l-3-135.3C-14.4,61.4-7.1,47.5,9,47.9z"/>
		</defs>
		<clipPath id="SVGID_8_">
			<use xlink:href="#SVGID_7_"  style="overflow:visible;"/>
		</clipPath>
		<path class="st41" d="M589.6,128.1c0.2-0.3,0.5-0.6,0.6-1c1.3-3,7.5-18.8,6.1-37.2c-1.6-20-33.3-109.8-35-114.7
			c0-0.1-0.1-0.2-0.1-0.4c-0.3-1.5-3.5-13.3-21.4-19.6c0,0-18.8-6.3-25.4-17.7c-6.2-10.8-30.8-74.1-33.3-80.7
			c-0.1-0.4-0.2-0.8-0.2-1.2c-0.1-3.2,0.4-17.4,12.8-22.1c1.1-0.4,2-1.4,2.2-2.5c0.2-1-0.1-2.1-1.7-2.9c-3.4-1.7-18.3-7-32.3-7.4
			c-0.6,0-1.1-0.2-1.6-0.4c-3-1.7-14.9-8-25.6-10.1c-12.3-2.3-223.6,4.9-230.5,5.1c-0.1,0-0.2,0-0.4,0c-1.8,0.3-15.2,2.6-23.8,12
			c-1.7,1.9-1,4.8,1.3,5.7l14.4,5.5c0.1,0.1,0.3,0.1,0.4,0.1c1.3,0.3,9.7,3,6.5,15.3c-3.3,12.6-24.5,89.1-26.7,97.2
			c-0.1,0.5-0.4,0.9-0.7,1.3c-2.5,2.9-14.2,14.6-39.3,11.5c-0.7-0.1-1.4,0-2,0.3L14.5,24c0,0-8.4,4.6-8.1,17.6s0.7,94.2,0.7,94.2
			s-1.8,19,33.3,23.3c2,0.2,3.8-1.1,4-3.1c1.6-14.3,10.5-67.5,55.1-68.5c58.1-1.3,67.9,52.2,69.4,66c0.2,1.8,1.8,3.2,3.6,3.1
			l254.3-5.7c1.8,0,3.3-1.5,3.5-3.3c0.9-13.9,7.5-67.8,58.9-69c51.8-1.2,64.2,53.3,66.5,66.6c0.3,1.8,2,3.1,3.8,2.9
			C564.5,147.7,575.2,144.4,589.6,128.1z"/>
		<polygon class="st42" points="73,-0.1 546,-10.6 539.2,-32.9 121,-23.6 		"/>
		<path class="st43" d="M510.6-177.2L567-46.7c0,0-27.3-9.1-32.9-20.2S498-153.6,498-153.6S496.5-172.8,510.6-177.2z"/>
		<path class="st43" d="M488.2-54.2l-93.4,2.1c0,0-10.2-0.4-10.6-11.4c-0.5-11,2.7-100.5,2.7-100.5s0-7.1,7.9-7.2
			c7.9-0.2,52.7-1.2,52.7-1.2s17.2-0.2,27.1,24.9s27.9,78.9,27.9,78.9S507.9-54.6,488.2-54.2z"/>
		<path class="st43" d="M371.5-164.1l-8.5,103c0,0,0.2,9.8-12.4,10c-12.7,0.3-156.3,3.5-156.3,3.5l36.4-120l134.9-3
			C365.6-170.6,371.9-169.2,371.5-164.1z"/>
		<path class="st43" d="M179.3-179.7L135.1-40.9c0,0,27.8,6.2,42.9-12.6l28.2-102.6c0,0,3.7-9-3.2-14.2
			C196-175.5,179.3-179.7,179.3-179.7z"/>
		<path class="st44" d="M582.2-29.3c0,0,9.8-1.7,13,4.8c3.2,6.6,20.2,60.2,20.2,60.2s1.1,8.2-8.6,8.4c-9.7,0.2-12.6-6.2-12.6-6.2
			l-20.2-60.2C573.9-22.3,573.5-30.1,582.2-29.3z"/>
		<path class="st45" d="M619.2,97.9c0,0,11.7,1.8,12.7,13s-0.3,24.1-0.3,24.1s0.2,7.1-11,7.7c-11.2,0.7-23.2,1.3-23.2,1.3
			s-13.3-1.8-14.8-12.5c-1.5-10.8,1.6-20.8,1.6-20.8l34.4-3.3L619.2,97.9z"/>
		<line class="st46" x1="545" y1="0.2" x2="66.1" y2="10.9"/>
		<path class="st47" d="M373.2,4.6l5.9,141c0,0-198.6,7.2-198.7,4.4S177.3,7.9,177.3,7.9l8.2-55.5l39.8-128.8l154.9-3.5L373.2,4.6z"
			/>
		
			<ellipse transform="matrix(0.9998 -2.233031e-02 2.233031e-02 0.9998 1.2523 5.0154)" class="st45" cx="225.2" cy="-53.6" rx="9.4" ry="28.8"/>
		
			<ellipse transform="matrix(0.9998 -2.233031e-02 2.233031e-02 0.9998 -3.2146 11.4108)" class="st48" cx="509.3" cy="149.6" rx="56.5" ry="56.5"/>
		
			<ellipse transform="matrix(0.9998 -2.233031e-02 2.233031e-02 0.9998 -3.2146 11.4108)" class="st49" cx="509.3" cy="149.6" rx="39.4" ry="39.4"/>
		
			<ellipse transform="matrix(0.9998 -2.233031e-02 2.233031e-02 0.9998 -3.2146 11.4108)" class="st45" cx="509.3" cy="149.6" rx="23.2" ry="23.2"/>
		
			<ellipse transform="matrix(0.9998 -2.233031e-02 2.233031e-02 0.9998 -3.4012 2.353)" class="st41" cx="103.7" cy="153.5" rx="32" ry="32"/>
		
			<ellipse transform="matrix(0.9998 -2.233031e-02 2.233031e-02 0.9998 -3.4012 2.353)" class="st41" cx="103.7" cy="153.5" rx="18.9" ry="18.9"/>
		<path class="st50" d="M620,103.4c0.1-0.5,0.2-1.1,0.5-1.5c0.5-0.7,1.6-0.8,2.5-0.5c0.8,0.3,1.5,1,2.1,1.7c3.5,4.2,5.7,9.5,6,15
			c0,0.7,0.1,1.5-0.3,2.2c-0.4,0.9-1.4,1.5-2.3,2c-10.6,5.6-23.1,7.1-35.1,5.7c-3.1-0.3-6.4-1.1-8.1-3.7c-1.2-1.8-1.2-4.1-1.1-6.2
			c0-1,0.1-2.1,0.6-3c1.1-2.2,4-2.7,6.4-3c8.6-0.9,17.2-1.9,25.8-2.8c0.8-0.1,1.6-0.2,2-0.9c0.2-0.3,0.2-0.6,0.3-0.9
			C619.6,106.2,619.8,104.8,620,103.4z"/>
		
			<ellipse transform="matrix(0.9998 -2.233031e-02 2.233031e-02 0.9998 -3.0824 16.9429)" class="st48" cx="757.1" cy="146.5" rx="45.8" ry="45.8"/>
		
			<ellipse transform="matrix(0.9998 -2.233031e-02 2.233031e-02 0.9998 -3.0829 16.9279)" class="st49" cx="756.4" cy="146.5" rx="32" ry="32"/>
		
			<ellipse transform="matrix(0.9998 -2.233031e-02 2.233031e-02 0.9998 -3.0829 16.9279)" class="st45" cx="756.4" cy="146.5" rx="18.9" ry="18.9"/>
		<path class="st50" d="M741.9,139.8c1.9-3.4,4.9-6.1,8.6-7.4s7.8-1,11.2,0.8c1.6,0.9,3,2.1,4.2,3.4c3.3,3.4,6.1,7.7,6.4,12.5
			c-1.9-1.1-4.2-0.9-6.3-0.3c-2.1,0.6-4,1.6-6.1,2.1c-4.2,1-8.6,0-12.8-1.2c-2.4-0.7-5-1.6-6-3.9C740.2,144,740.8,141.7,741.9,139.8
			z"/>
		<path class="st50" d="M506.1,131.7c6.1-0.4,12.3,2,16.5,6.3c4.2,4.4,6.4,10.6,6,16.7c-2.5-3.7-7.8-4.5-12.2-3.6
			c-4.4,0.9-8.5,3-12.9,3.9c-4.4,0.8-9.7-0.1-12-4c-1.4-2.4-1.4-5.3-0.6-8C492.8,136.6,499.4,132.2,506.1,131.7z"/>
	</g>
	<g>
		
			<rect x="100.8" y="55.9" transform="matrix(9.016161e-03 1 -1 9.016161e-03 301.4967 -75.2821)" class="st51" width="175.8" height="117.2"/>
		<path class="st52" d="M182.4,26.6c0,0,64.8,119,65.7,175.2L246.5,26L182.4,26.6z"/>
		<polygon class="st51" points="129.3,27.1 154.9,5.3 156.9,225.1 130.9,202.9 		"/>
		<path class="st52" d="M134,23.1l22.8,201.2c0,0.1,0.1,0,0.1,0l-2-219L134,23.1z"/>
	</g>
</g>
<g>
	<path class="st52" d="M273.4,48h-12.3c0,7.4,0,14.8,0,22.1l16.3,42.7l-16.9,0c0,5.8-0.1,11.6-0.1,17.4l20.4,0.1l10.3,26.1h23.6
		L273.4,48z"/>
	<path class="st52" d="M331.5,147.1c-8.6-7.3-12.9-17.8-12.9-31.5V48h22.7v65.9c0,8.2,2.2,14.4,6.6,18.5c4.4,4.2,10.8,6.2,19.1,6.2
		c8.3,0,14.6-2.1,19-6.2c4.4-4.1,6.6-10.3,6.6-18.5V48h22.7v67.6c0,13.6-4.3,24-12.8,31.4c-8.5,7.3-20.4,11-35.5,11
		C352,158,340.1,154.4,331.5,147.1z"/>
	<path class="st52" d="M460.3,65.5H427V48h89.2v17.5H483v90.8h-22.7V65.5z"/>
	<path class="st52" d="M516,102.7c0-19.5,4.3-33.8,13-42.8c8.7-9,21.9-13.5,39.6-13.5c17.7,0,30.9,4.5,39.6,13.5
		c8.7,9,13,23.3,13,42.8c0,36.9-17.6,55.3-52.7,55.3C533.5,158,516,139.6,516,102.7z M591,129.8c4.8-5.9,7.2-14.9,7.2-27.2
		c0-13.3-2.4-22.9-7.1-28.5c-4.7-5.7-12.2-8.5-22.5-8.5c-10.3,0-17.8,2.8-22.5,8.5c-4.7,5.7-7.1,15.2-7.1,28.5
		c0,12.2,2.4,21.3,7.2,27.2c4.8,5.9,12.3,8.8,22.4,8.8C578.7,138.7,586.2,135.7,591,129.8z"/>
	<path class="st52" d="M637.1,48h50.8c12.2,0,21.5,3.4,27.8,10.3c6.3,6.8,9.4,15.9,9.4,27.1c0,7.3-1.5,13.7-4.6,19.3
		c-3.1,5.6-7.5,10-13.2,13c-5.7,3.1-12.4,4.6-20,4.6h-27.4v34h-22.7V48z M682.5,104.3c6.4,0,11.3-1.7,14.6-5c3.4-3.4,5-8,5-14
		c0-6.3-1.6-11.1-4.7-14.4c-3.1-3.3-7.9-5-14.1-5h-23.6v38.4H682.5z"/>
	<path class="st52" d="M758.9,48h24.9L825,156.3h-23.6l-10.3-26.1h-39.9l-10.1,26.1h-23.7L758.9,48z M787.8,112.8l-16.7-43.6
		l-16.5,43.6H787.8z"/>
	<path class="st52" d="M840.8,48h52c12.1,0,21.2,3.2,27.2,9.6c6,6.4,9,15.3,9,26.7c0,7.3-1.9,13.6-5.6,18.8
		c-3.8,5.3-9.1,9.1-15.9,11.4c1.7,1.5,3.1,3,4.1,4.6c1.1,1.6,2.2,3.9,3.4,6.8l13.1,30.3h-23.6l-12.8-29.1c-1.1-2.6-2.4-4.3-3.8-5.3
		c-1.4-1-3.6-1.4-6.6-1.4h-17.8v35.8h-22.7V48z M886.9,101.7c6.2,0,10.9-1.4,14.1-4.1c3.3-2.7,4.9-7.1,4.9-13.2
		c0-6.1-1.5-10.5-4.4-13.3c-2.9-2.8-7.3-4.2-13.3-4.2h-24.7v34.8H886.9z"/>
	<path class="st52" d="M965.5,65.5h-33.3V48h89.2v17.5h-33.1v90.8h-22.7V65.5z"/>
	<path class="st52" d="M1111.3,141.9v-34.5h-28.9V98h40.9v51.5c-9,5.7-21.9,8.6-38.7,8.6c-17,0-30-4.8-38.8-14.3
		c-8.8-9.5-13.2-22.6-13.2-39.2c0-18.4,4.2-32.7,12.7-42.9c8.5-10.2,21.5-15.3,39.1-15.3c11.5,0,22,1.7,31.5,5v12.1
		c-9.5-3.6-19.6-5.4-30.3-5.4c-14,0-24.1,3.9-30.1,11.8c-6.1,7.9-9.1,19.4-9.1,34.7c0,13.7,3.1,24.1,9.4,31.1
		c6.3,7.1,16.1,10.6,29.6,10.6C1095.2,146.2,1103.8,144.8,1111.3,141.9z"/>
	<path class="st52" d="M1227.8,144.6c-8.1,9-20.7,13.5-37.8,13.5c-17,0-29.6-4.5-37.8-13.5c-8.1-9-12.2-23.1-12.2-42.4
		c0-19.3,4.1-33.4,12.2-42.4c8.1-9,20.7-13.5,37.8-13.5c17,0,29.6,4.5,37.8,13.5c8.1,9,12.2,23.1,12.2,42.4
		C1240,121.5,1235.9,135.6,1227.8,144.6z M1222.3,76.3c-2.6-6.4-6.5-11.1-11.8-14c-5.3-2.9-12.1-4.3-20.5-4.3
		c-8.4,0-15.3,1.4-20.5,4.3c-5.3,2.9-9.2,7.5-11.8,14c-2.6,6.5-3.9,15.1-3.9,25.8s1.3,19.4,3.9,25.8c2.6,6.5,6.5,11.1,11.8,14
		c5.3,2.9,12.1,4.3,20.5,4.3c8.4,0,15.3-1.4,20.5-4.3c5.3-2.9,9.2-7.5,11.8-14c2.6-6.4,3.9-15.1,3.9-25.8S1224.9,82.8,1222.3,76.3z"
		/>
	<path class="st52" d="M1272,145.4v10.9h-15.1v-10.9H1272z M1271.3,48h-13.8v26.4l1,56h11.8l1-56V48z"/>
</g>
<rect x="1543.4" y="-1226" class="st0" width="1916" height="591.8"/>
<g>
	<g>
		<defs>
			<path id="SVGID_9_" d="M2372.7-2257.9h230.1c22.1-0.5,39.4,12.2,39.9,34.3l4.2,189.8c0.5,22.1-17,40.4-39.1,40.9l-222.3,5
				c-22.1,0.5-40.4-17-40.9-39.1l-4.2-189.8C2339.8-2239,2350.2-2258.4,2372.7-2257.9z"/>
		</defs>
		<clipPath id="SVGID_10_">
			<use xlink:href="#SVGID_9_"  style="overflow:visible;"/>
		</clipPath>
		
			<rect x="2399" y="-2224.2" transform="matrix(-0.9998 2.233031e-02 -2.233031e-02 -0.9998 5533.9585 -4400.6724)" class="st53" width="785.2" height="109.5"/>
		<path class="st54" d="M3187.4-2145.5c0.4-0.4,0.6-0.9,0.8-1.3c1.8-4.3,10.6-26.4,8.5-52.3c-2.2-28.1-46.7-154.1-49.1-160.9
			c-0.1-0.2-0.1-0.3-0.2-0.5c-0.5-2.2-4.9-18.7-30-27.4c0,0-26.3-8.9-35.6-24.8c-8.8-15.1-43.2-104-46.7-113.2
			c-0.2-0.5-0.3-1.1-0.3-1.7c-0.1-4.5,0.5-24.4,18-31c1.5-0.6,2.8-1.9,3-3.6c0.2-1.3-0.2-2.9-2.4-4c-4.8-2.4-25.7-9.8-45.3-10.4
			c-0.8,0-1.6-0.2-2.2-0.6c-4.2-2.4-20.9-11.3-36-14.2c-17.2-3.3-313.7,6.9-323.4,7.2c-0.2,0-0.3,0-0.5,0
			c-2.5,0.4-21.3,3.6-33.3,16.8c-2.3,2.6-1.4,6.7,1.9,8l20.2,7.8c0.2,0.1,0.4,0.1,0.6,0.2c1.9,0.5,13.6,4.1,9.1,21.4
			c-4.6,17.7-34.4,125-37.5,136.3c-0.2,0.7-0.5,1.3-1,1.9c-3.5,4.1-19.9,20.5-55.2,16.2c-1-0.1-2,0-2.9,0.5l-167.4,83.7
			c0,0-11.7,6.4-11.3,24.7s0.9,132.2,0.9,132.2s-2.5,26.6,46.7,32.8c2.8,0.3,5.3-1.6,5.6-4.4c2.2-20.1,14.7-94.7,77.3-96.1
			c81.5-1.8,95.2,73.3,97.4,92.6c0.3,2.5,2.5,4.4,5,4.4l356.8-8c2.6-0.1,4.7-2.1,4.8-4.6c1.2-19.5,10.5-95.2,82.6-96.8
			c72.8-1.6,90.1,74.8,93.3,93.4c0.4,2.5,2.7,4.4,5.3,4.1C3152.1-2117.8,3167.2-2122.5,3187.4-2145.5z"/>
		<polygon class="st55" points="2462.6,-2325.2 3126.2,-2340 3116.6,-2371.3 2529.8,-2358.2 		"/>
		<path class="st56" d="M3076.6-2573.8l79.1,183.1c0,0-38.3-12.7-46.2-28.3s-50.7-121.7-50.7-121.7S3056.8-2567.5,3076.6-2573.8z"/>
		<path class="st56" d="M3045.1-2401.2l-131,2.9c0,0-14.3-0.6-14.9-16s3.8-141.1,3.8-141.1s0.1-9.9,11.1-10.2
			c11.1-0.2,74-1.7,74-1.7s24.2-0.2,38.1,35c13.9,35.2,39.2,110.7,39.2,110.7S3072.7-2401.8,3045.1-2401.2z"/>
		<path class="st56" d="M2881.4-2555.4l-11.9,144.5c0,0,0.3,13.7-17.5,14.1s-219.2,4.9-219.2,4.9l51-168.4l189.3-4.2
			C2873-2564.5,2882-2562.5,2881.4-2555.4z"/>
		<path class="st56" d="M2611.7-2577.3l-62.1,194.8c0,0,38.9,8.7,60.2-17.7l39.6-143.9c0,0,5.2-12.6-4.5-20
			C2635.2-2571.4,2611.7-2577.3,2611.7-2577.3z"/>
		<path class="st57" d="M3176.9-2366.2c0,0,13.7-2.4,18.2,6.8c4.5,9.2,28.3,84.4,28.3,84.4s1.5,11.4-12.1,11.7
			c-13.6,0.3-17.7-8.7-17.7-8.7l-28.3-84.4C3165.3-2356.5,3164.7-2367.4,3176.9-2366.2z"/>
		<path class="st58" d="M3228.9-2187.8c0,0,16.4,2.5,17.9,18.2s-0.4,33.8-0.4,33.8s0.2,9.9-15.5,10.8s-32.6,1.9-32.6,1.9
			s-18.7-2.5-20.8-17.6s2.3-29.2,2.3-29.2l48.3-4.6L3228.9-2187.8z"/>
		<line class="st59" x1="3124.8" y1="-2324.9" x2="2452.8" y2="-2309.9"/>
		<path class="st60" d="M2883.8-2318.7l8.3,197.9c0,0-278.7,10.1-278.7,6.2c-0.1-3.9-4.5-199.5-4.5-199.5l11.5-77.9l55.8-180.7
			l217.4-4.9L2883.8-2318.7z"/>
		
			<ellipse transform="matrix(0.9998 -2.233031e-02 2.233031e-02 0.9998 54.2666 59.1592)" class="st58" cx="2676.1" cy="-2400.3" rx="13.2" ry="40.4"/>
		
			<ellipse transform="matrix(0.9998 -2.233031e-02 2.233031e-02 0.9998 47.9991 68.1327)" class="st61" cx="3074.7" cy="-2115.2" rx="79.2" ry="79.2"/>
		
			<ellipse transform="matrix(0.9998 -2.233031e-02 2.233031e-02 0.9998 47.9991 68.1327)" class="st62" cx="3074.7" cy="-2115.2" rx="55.3" ry="55.3"/>
		
			<ellipse transform="matrix(0.9998 -2.233031e-02 2.233031e-02 0.9998 47.9991 68.1327)" class="st58" cx="3074.7" cy="-2115.2" rx="32.6" ry="32.6"/>
		
			<ellipse transform="matrix(0.9998 -2.233031e-02 2.233031e-02 0.9998 47.738 55.4448)" class="st53" cx="2506.5" cy="-2109.8" rx="64.3" ry="64.3"/>
		
			<ellipse transform="matrix(0.9998 -2.233031e-02 2.233031e-02 0.9998 47.7373 55.4237)" class="st63" cx="2505.6" cy="-2109.8" rx="44.9" ry="44.9"/>
		
			<ellipse transform="matrix(0.9998 -2.233031e-02 2.233031e-02 0.9998 47.7373 55.4237)" class="st63" cx="2505.6" cy="-2109.8" rx="26.5" ry="26.5"/>
		<path class="st64" d="M3230.1-2180.1c0.1-0.7,0.2-1.5,0.7-2.1c0.8-1,2.3-1.2,3.4-0.7c1.2,0.5,2.1,1.4,2.9,2.4
			c4.9,5.9,8,13.4,8.5,21.1c0.1,1.1,0.1,2.1-0.4,3.1c-0.6,1.3-1.9,2.1-3.2,2.8c-14.9,7.8-32.4,10-49.2,8.1c-4.3-0.5-9-1.5-11.4-5.2
			c-1.6-2.5-1.7-5.7-1.5-8.7c0.1-1.4,0.2-2.9,0.8-4.1c1.6-3.1,5.6-3.8,9-4.2c12.1-1.3,24.2-2.6,36.3-3.9c1.1-0.1,2.3-0.3,2.8-1.3
			c0.2-0.4,0.3-0.8,0.4-1.3C3229.5-2176.1,3229.8-2178.1,3230.1-2180.1z"/>
		
			<ellipse transform="matrix(0.9998 -2.233031e-02 2.233031e-02 0.9998 48.1846 75.8949)" class="st61" cx="3422.4" cy="-2119.6" rx="64.3" ry="64.3"/>
		
			<ellipse transform="matrix(0.9998 -2.233031e-02 2.233031e-02 0.9998 48.1839 75.8737)" class="st62" cx="3421.5" cy="-2119.6" rx="44.9" ry="44.9"/>
		
			<ellipse transform="matrix(0.9998 -2.233031e-02 2.233031e-02 0.9998 48.1839 75.8737)" class="st58" cx="3421.5" cy="-2119.6" rx="26.5" ry="26.5"/>
		<path class="st64" d="M3401-2128.9c2.6-4.7,6.9-8.6,12-10.4c5.1-1.8,11-1.5,15.7,1.2c2.2,1.2,4.2,2.9,6,4.8
			c4.7,4.8,8.5,10.9,9,17.6c-2.6-1.5-5.9-1.2-8.8-0.4c-2.9,0.9-5.6,2.3-8.6,3c-5.9,1.5-12.1,0-18-1.7c-3.3-1-7-2.3-8.4-5.5
			C3398.6-2123.1,3399.6-2126.3,3401-2128.9z"/>
		<path class="st64" d="M3070.2-2140.3c8.5-0.6,17.2,2.8,23.1,8.9s9,14.9,8.4,23.4c-3.5-5.2-10.9-6.3-17.1-5
			c-6.2,1.2-11.9,4.3-18.1,5.4c-6.2,1.1-13.6-0.2-16.9-5.6c-2-3.3-2-7.5-0.9-11.2C3051.6-2133.5,3060.8-2139.6,3070.2-2140.3z"/>
	</g>
	<g>
		
			<rect x="2501.6" y="-2246.7" transform="matrix(9.016161e-03 1 -1 9.016161e-03 436.8157 -4769.8154)" class="st14" width="246.7" height="164.4"/>
		<path class="st15" d="M2616.1-2287.8c0,0,91,166.9,92.2,245.8l-2.2-246.7L2616.1-2287.8z"/>
		<polygon class="st14" points="2541.6,-2287.1 2577.5,-2317.7 2580.3,-2009.3 2543.8,-2040.5 		"/>
		<path class="st15" d="M2548.2-2292.7l32,282.3c0,0.1,0.1,0.1,0.1,0l-2.8-307.3L2548.2-2292.7z"/>
	</g>
</g>
<g>
	<path class="st1" d="M2064.5-1962.8h-11.5c0,6.9,0,13.8,0,20.6l15.2,39.8l-15.8,0c0,5.4-0.1,10.8-0.1,16.3l19,0.1l9.6,24.3h22
		L2064.5-1962.8z"/>
	<path class="st1" d="M2118.7-1870.4c-8-6.8-12-16.6-12-29.3v-63.1h21.2v61.5c0,7.6,2.1,13.4,6.2,17.3c4.1,3.9,10.1,5.8,17.8,5.8
		c7.7,0,13.7-1.9,17.7-5.8c4.1-3.9,6.1-9.6,6.1-17.3v-61.5h21.2v63.1c0,12.7-4,22.4-11.9,29.3c-8,6.9-19,10.3-33.1,10.3
		C2137.8-1860.2,2126.7-1863.6,2118.7-1870.4z"/>
	<path class="st1" d="M2238.9-1946.5h-31.1v-16.3h83.2v16.3h-30.9v84.8h-21.2V-1946.5z"/>
	<path class="st1" d="M2290.8-1911.8c0-18.2,4.1-31.5,12.2-39.9c8.1-8.4,20.4-12.6,37-12.6c16.5,0,28.9,4.2,37,12.6
		c8.1,8.4,12.2,21.7,12.2,39.9c0,34.4-16.4,51.6-49.1,51.6C2307.2-1860.2,2290.8-1877.4,2290.8-1911.8z M2360.8-1886.4
		c4.5-5.5,6.7-13.9,6.7-25.3c0-12.5-2.2-21.3-6.6-26.6c-4.4-5.3-11.4-7.9-21-7.9c-9.6,0-16.6,2.6-21,7.9c-4.4,5.3-6.6,14.2-6.6,26.6
		c0,11.4,2.2,19.9,6.7,25.3c4.5,5.5,11.5,8.2,20.9,8.2C2349.4-1878.2,2356.3-1881,2360.8-1886.4z"/>
	<path class="st1" d="M2403.8-1962.8h47.4c11.4,0,20,3.2,25.9,9.6c5.9,6.4,8.8,14.8,8.8,25.3c0,6.8-1.4,12.8-4.3,18.1
		c-2.9,5.2-7,9.3-12.3,12.2c-5.3,2.9-11.6,4.3-18.7,4.3H2425v31.7h-21.2V-1962.8z M2446.2-1910.2c6,0,10.5-1.6,13.7-4.7
		c3.1-3.1,4.7-7.5,4.7-13c0-5.9-1.5-10.3-4.4-13.4c-2.9-3.1-7.3-4.6-13.2-4.6h-22v35.8H2446.2z"/>
	<path class="st1" d="M2517.5-1962.8h23.2l38.5,101.1h-22l-9.6-24.3h-37.2l-9.4,24.3h-22.1L2517.5-1962.8z M2544.5-1902.4
		l-15.5-40.7l-15.4,40.7H2544.5z"/>
	<path class="st1" d="M2593.9-1962.8h48.5c11.3,0,19.7,3,25.3,8.9c5.6,6,8.4,14.3,8.4,25c0,6.8-1.8,12.7-5.3,17.6
		c-3.5,4.9-8.5,8.5-14.8,10.7c1.6,1.4,2.9,2.8,3.8,4.3c1,1.5,2.1,3.6,3.2,6.4l12.2,28.3h-22l-11.9-27.2c-1-2.4-2.2-4.1-3.5-4.9
		c-1.3-0.9-3.4-1.3-6.2-1.3h-16.6v33.4h-21.2V-1962.8z M2636.9-1912.7c5.8,0,10.1-1.3,13.2-3.8c3-2.6,4.6-6.7,4.6-12.3
		s-1.4-9.8-4.1-12.4c-2.7-2.6-6.9-3.9-12.4-3.9h-23.1v32.5H2636.9z"/>
	<path class="st1" d="M2710.2-1946.5h-31.1v-16.3h83.2v16.3h-30.9v84.8h-21.2V-1946.5z"/>
	<path class="st1" d="M2846.3-1875.2v-32.2h-27v-8.8h38.1v48c-8.4,5.3-20.4,8-36.1,8c-15.9,0-28-4.4-36.2-13.3
		c-8.2-8.9-12.3-21.1-12.3-36.6c0-17.2,3.9-30.5,11.9-40c7.9-9.5,20.1-14.3,36.5-14.3c10.8,0,20.6,1.6,29.3,4.7v11.3
		c-8.9-3.3-18.3-5-28.3-5c-13.1,0-22.4,3.7-28.1,11c-5.6,7.3-8.5,18.1-8.5,32.3c0,12.8,2.9,22.4,8.8,29c5.9,6.6,15.1,9.9,27.6,9.9
		C2831.2-1871.1,2839.3-1872.5,2846.3-1875.2z"/>
	<path class="st1" d="M2955-1872.7c-7.6,8.4-19.3,12.6-35.2,12.6c-15.9,0-27.7-4.2-35.2-12.6c-7.6-8.4-11.4-21.6-11.4-39.6
		c0-18,3.8-31.2,11.4-39.6c7.6-8.4,19.3-12.6,35.2-12.6c15.9,0,27.6,4.2,35.2,12.6c7.6,8.4,11.4,21.6,11.4,39.6
		C2966.4-1894.3,2962.6-1881.1,2955-1872.7z M2949.9-1936.4c-2.4-6-6.1-10.4-11-13c-4.9-2.7-11.3-4-19.1-4c-7.8,0-14.2,1.3-19.1,4
		c-4.9,2.7-8.6,7-11,13c-2.4,6-3.6,14-3.6,24.1s1.2,18.1,3.6,24.1c2.4,6,6.1,10.4,11,13c4.9,2.7,11.3,4,19.1,4
		c7.8,0,14.2-1.3,19.1-4c4.9-2.7,8.6-7,11-13c2.4-6,3.6-14,3.6-24.1S2952.3-1930.3,2949.9-1936.4z"/>
	<path class="st1" d="M2996.2-1871.9v10.2h-14.1v-10.2H2996.2z M2995.6-1962.8h-12.9v24.6l0.9,52.3h11l0.9-52.3V-1962.8z"/>
</g>
<g>
	<g>
		<defs>
			<path id="SVGID_11_" d="M2372.7-1694.9h230.1c22.1-0.5,39.4,12.2,39.9,34.3l4.2,189.8c0.5,22.1-17,40.4-39.1,40.9l-222.3,5
				c-22.1,0.5-40.4-17-40.9-39.1l-4.2-189.8C2339.8-1676,2350.2-1695.4,2372.7-1694.9z"/>
		</defs>
		<clipPath id="SVGID_12_">
			<use xlink:href="#SVGID_11_"  style="overflow:visible;"/>
		</clipPath>
		
			<rect x="2399" y="-1661.2" transform="matrix(-0.9998 2.233031e-02 -2.233031e-02 -0.9998 5546.5303 -3274.8127)" class="st65" width="785.2" height="109.5"/>
		<path class="st66" d="M3187.4-1582.5c0.4-0.4,0.6-0.9,0.8-1.3c1.8-4.3,10.6-26.4,8.5-52.3c-2.2-28.1-46.7-154.1-49.1-160.9
			c-0.1-0.2-0.1-0.3-0.2-0.5c-0.5-2.2-4.9-18.7-30-27.4c0,0-26.3-8.9-35.6-24.8c-8.8-15.1-43.2-104-46.7-113.2
			c-0.2-0.5-0.3-1.1-0.3-1.7c-0.1-4.5,0.5-24.4,18-31c1.5-0.6,2.8-1.9,3-3.6c0.2-1.3-0.2-2.9-2.4-4c-4.8-2.4-25.7-9.8-45.3-10.4
			c-0.8,0-1.6-0.2-2.2-0.6c-4.2-2.4-20.9-11.3-36-14.2c-17.2-3.3-313.7,6.9-323.4,7.2c-0.2,0-0.3,0-0.5,0
			c-2.5,0.4-21.3,3.6-33.3,16.8c-2.3,2.6-1.4,6.7,1.9,8l20.2,7.8c0.2,0.1,0.4,0.1,0.6,0.2c1.9,0.5,13.6,4.1,9.1,21.4
			c-4.6,17.7-34.4,125-37.5,136.3c-0.2,0.7-0.5,1.3-1,1.9c-3.5,4.1-19.9,20.5-55.2,16.2c-1-0.1-2,0-2.9,0.5l-167.4,83.7
			c0,0-11.7,6.4-11.3,24.7s0.9,132.2,0.9,132.2s-2.5,26.6,46.7,32.8c2.8,0.3,5.3-1.6,5.6-4.4c2.2-20.1,14.7-94.7,77.3-96.1
			c81.5-1.8,95.2,73.3,97.4,92.6c0.3,2.5,2.5,4.4,5,4.4l356.8-8c2.6-0.1,4.7-2.1,4.8-4.6c1.2-19.5,10.5-95.2,82.6-96.8
			c72.8-1.6,90.1,74.8,93.3,93.4c0.4,2.5,2.7,4.4,5.3,4.1C3152.1-1554.8,3167.2-1559.5,3187.4-1582.5z"/>
		<polygon class="st67" points="2462.6,-1762.2 3126.2,-1777 3116.6,-1808.3 2529.8,-1795.2 		"/>
		<path class="st68" d="M3076.6-2010.8l79.1,183.1c0,0-38.3-12.7-46.2-28.3s-50.7-121.7-50.7-121.7S3056.8-2004.5,3076.6-2010.8z"/>
		<path class="st68" d="M3045.1-1838.2l-131,2.9c0,0-14.3-0.6-14.9-16c-0.6-15.4,3.8-141.1,3.8-141.1s0.1-9.9,11.1-10.2
			c11.1-0.2,74-1.7,74-1.7s24.2-0.2,38.1,35c13.9,35.2,39.2,110.7,39.2,110.7S3072.7-1838.8,3045.1-1838.2z"/>
		<path class="st68" d="M2881.4-1992.4l-11.9,144.5c0,0,0.3,13.7-17.5,14.1s-219.2,4.9-219.2,4.9l51-168.4l189.3-4.2
			C2873-2001.5,2882-1999.5,2881.4-1992.4z"/>
		<path class="st68" d="M2611.7-2014.3l-62.1,194.8c0,0,38.9,8.7,60.2-17.7l39.6-143.9c0,0,5.2-12.6-4.5-20
			C2635.2-2008.4,2611.7-2014.3,2611.7-2014.3z"/>
		<path class="st69" d="M3176.9-1803.2c0,0,13.7-2.4,18.2,6.8s28.3,84.4,28.3,84.4s1.5,11.4-12.1,11.7c-13.6,0.3-17.7-8.7-17.7-8.7
			l-28.3-84.4C3165.3-1793.5,3164.7-1804.4,3176.9-1803.2z"/>
		<path class="st70" d="M3228.9-1624.8c0,0,16.4,2.5,17.9,18.2s-0.4,33.8-0.4,33.8s0.2,9.9-15.5,10.8c-15.7,0.9-32.6,1.9-32.6,1.9
			s-18.7-2.5-20.8-17.6s2.3-29.2,2.3-29.2l48.3-4.6L3228.9-1624.8z"/>
		<line class="st71" x1="3124.8" y1="-1761.9" x2="2452.8" y2="-1746.9"/>
		<path class="st72" d="M2883.8-1755.7l8.3,197.9c0,0-278.7,10.1-278.7,6.2c-0.1-3.9-4.5-199.5-4.5-199.5l11.5-77.9l55.8-180.7
			l217.4-4.9L2883.8-1755.7z"/>
		
			<ellipse transform="matrix(0.9998 -2.233031e-02 2.233031e-02 0.9998 41.6947 59.2996)" class="st70" cx="2676.1" cy="-1837.3" rx="13.2" ry="40.4"/>
		
			<ellipse transform="matrix(0.9998 -2.233031e-02 2.233031e-02 0.9998 35.4272 68.2731)" class="st73" cx="3074.7" cy="-1552.2" rx="79.2" ry="79.2"/>
		
			<ellipse transform="matrix(0.9998 -2.233031e-02 2.233031e-02 0.9998 35.4272 68.2731)" class="st74" cx="3074.7" cy="-1552.2" rx="55.3" ry="55.3"/>
		
			<ellipse transform="matrix(0.9998 -2.233031e-02 2.233031e-02 0.9998 35.4272 68.2731)" class="st70" cx="3074.7" cy="-1552.2" rx="32.6" ry="32.6"/>
		
			<ellipse transform="matrix(0.9998 -2.233031e-02 2.233031e-02 0.9998 35.166 55.5852)" class="st65" cx="2506.5" cy="-1546.8" rx="64.3" ry="64.3"/>
		
			<ellipse transform="matrix(0.9998 -2.233031e-02 2.233031e-02 0.9998 35.1653 55.5641)" class="st75" cx="2505.6" cy="-1546.8" rx="44.9" ry="44.9"/>
		
			<ellipse transform="matrix(0.9998 -2.233031e-02 2.233031e-02 0.9998 35.1653 55.5641)" class="st75" cx="2505.6" cy="-1546.8" rx="26.5" ry="26.5"/>
		<path class="st76" d="M3230.1-1617.1c0.1-0.7,0.2-1.5,0.7-2.1c0.8-1,2.3-1.2,3.4-0.7c1.2,0.5,2.1,1.4,2.9,2.4
			c4.9,5.9,8,13.4,8.5,21.1c0.1,1.1,0.1,2.1-0.4,3.1c-0.6,1.3-1.9,2.1-3.2,2.8c-14.9,7.8-32.4,10-49.2,8.1c-4.3-0.5-9-1.5-11.4-5.2
			c-1.6-2.5-1.7-5.7-1.5-8.7c0.1-1.4,0.2-2.9,0.8-4.1c1.6-3.1,5.6-3.8,9-4.2c12.1-1.3,24.2-2.6,36.3-3.9c1.1-0.1,2.3-0.3,2.8-1.3
			c0.2-0.4,0.3-0.8,0.4-1.3C3229.5-1613.1,3229.8-1615.1,3230.1-1617.1z"/>
		
			<ellipse transform="matrix(0.9998 -2.233031e-02 2.233031e-02 0.9998 35.6127 76.0352)" class="st73" cx="3422.4" cy="-1556.6" rx="64.3" ry="64.3"/>
		
			<ellipse transform="matrix(0.9998 -2.233031e-02 2.233031e-02 0.9998 35.612 76.0141)" class="st74" cx="3421.5" cy="-1556.6" rx="44.9" ry="44.9"/>
		
			<ellipse transform="matrix(0.9998 -2.233031e-02 2.233031e-02 0.9998 35.612 76.0141)" class="st70" cx="3421.5" cy="-1556.6" rx="26.5" ry="26.5"/>
		<path class="st76" d="M3401-1565.9c2.6-4.7,6.9-8.6,12-10.4c5.1-1.8,11-1.5,15.7,1.2c2.2,1.2,4.2,2.9,6,4.8
			c4.7,4.8,8.5,10.9,9,17.6c-2.6-1.5-5.9-1.2-8.8-0.4c-2.9,0.9-5.6,2.3-8.6,3c-5.9,1.5-12.1,0-18-1.7c-3.3-1-7-2.3-8.4-5.5
			C3398.6-1560.1,3399.6-1563.3,3401-1565.9z"/>
		<path class="st76" d="M3070.2-1577.3c8.5-0.6,17.2,2.8,23.1,8.9s9,14.9,8.4,23.4c-3.5-5.2-10.9-6.3-17.1-5
			c-6.2,1.2-11.9,4.3-18.1,5.4c-6.2,1.1-13.6-0.2-16.9-5.6c-2-3.3-2-7.5-0.9-11.2C3051.6-1570.5,3060.8-1576.6,3070.2-1577.3z"/>
	</g>
	<g>
		
			<rect x="2501.6" y="-1683.7" transform="matrix(9.016161e-03 1 -1 9.016161e-03 999.7928 -4211.8916)" class="st14" width="246.7" height="164.4"/>
		<path class="st15" d="M2616.1-1724.8c0,0,91,166.9,92.2,245.8l-2.2-246.7L2616.1-1724.8z"/>
		<polygon class="st14" points="2541.6,-1724.1 2577.5,-1754.7 2580.3,-1446.3 2543.8,-1477.5 		"/>
		<path class="st15" d="M2548.2-1729.7l32,282.3c0,0.1,0.1,0.1,0.1,0l-2.8-307.3L2548.2-1729.7z"/>
	</g>
</g>
<g>
	<path class="st28" d="M2064.5-1399.8h-11.5c0,6.9,0,13.8,0,20.6l15.2,39.8l-15.8,0c0,5.4-0.1,10.8-0.1,16.3l19,0.1l9.6,24.3h22
		L2064.5-1399.8z"/>
	<path class="st28" d="M2118.7-1307.4c-8-6.8-12-16.6-12-29.3v-63.1h21.2v61.5c0,7.6,2.1,13.4,6.2,17.3c4.1,3.9,10.1,5.8,17.8,5.8
		c7.7,0,13.7-1.9,17.7-5.8c4.1-3.9,6.1-9.6,6.1-17.3v-61.5h21.2v63.1c0,12.7-4,22.4-11.9,29.3c-8,6.9-19,10.3-33.1,10.3
		C2137.8-1297.2,2126.7-1300.6,2118.7-1307.4z"/>
	<path class="st28" d="M2238.9-1383.5h-31.1v-16.3h83.2v16.3h-30.9v84.8h-21.2V-1383.5z"/>
	<path class="st28" d="M2290.8-1348.8c0-18.2,4.1-31.5,12.2-39.9c8.1-8.4,20.4-12.6,37-12.6c16.5,0,28.9,4.2,37,12.6
		c8.1,8.4,12.2,21.7,12.2,39.9c0,34.4-16.4,51.6-49.1,51.6C2307.2-1297.2,2290.8-1314.4,2290.8-1348.8z M2360.8-1323.4
		c4.5-5.5,6.7-13.9,6.7-25.3c0-12.5-2.2-21.3-6.6-26.6c-4.4-5.3-11.4-7.9-21-7.9c-9.6,0-16.6,2.6-21,7.9c-4.4,5.3-6.6,14.2-6.6,26.6
		c0,11.4,2.2,19.9,6.7,25.3c4.5,5.5,11.5,8.2,20.9,8.2C2349.4-1315.2,2356.3-1318,2360.8-1323.4z"/>
	<path class="st28" d="M2403.8-1399.8h47.4c11.4,0,20,3.2,25.9,9.6c5.9,6.4,8.8,14.8,8.8,25.3c0,6.8-1.4,12.8-4.3,18.1
		c-2.9,5.2-7,9.3-12.3,12.2c-5.3,2.9-11.6,4.3-18.7,4.3H2425v31.7h-21.2V-1399.8z M2446.2-1347.2c6,0,10.5-1.6,13.7-4.7
		c3.1-3.1,4.7-7.5,4.7-13c0-5.9-1.5-10.3-4.4-13.4c-2.9-3.1-7.3-4.6-13.2-4.6h-22v35.8H2446.2z"/>
	<path class="st28" d="M2517.5-1399.8h23.2l38.5,101.1h-22l-9.6-24.3h-37.2l-9.4,24.3h-22.1L2517.5-1399.8z M2544.5-1339.4
		l-15.5-40.7l-15.4,40.7H2544.5z"/>
	<path class="st28" d="M2593.9-1399.8h48.5c11.3,0,19.7,3,25.3,8.9c5.6,6,8.4,14.3,8.4,25c0,6.8-1.8,12.7-5.3,17.6
		c-3.5,4.9-8.5,8.5-14.8,10.7c1.6,1.4,2.9,2.8,3.8,4.3c1,1.5,2.1,3.6,3.2,6.4l12.2,28.3h-22l-11.9-27.2c-1-2.4-2.2-4.1-3.5-4.9
		c-1.3-0.9-3.4-1.3-6.2-1.3h-16.6v33.4h-21.2V-1399.8z M2636.9-1349.7c5.8,0,10.1-1.3,13.2-3.8c3-2.6,4.6-6.7,4.6-12.3
		s-1.4-9.8-4.1-12.4c-2.7-2.6-6.9-3.9-12.4-3.9h-23.1v32.5H2636.9z"/>
	<path class="st28" d="M2710.2-1383.5h-31.1v-16.3h83.2v16.3h-30.9v84.8h-21.2V-1383.5z"/>
	<path class="st28" d="M2846.3-1312.2v-32.2h-27v-8.8h38.1v48c-8.4,5.3-20.4,8-36.1,8c-15.9,0-28-4.4-36.2-13.3
		c-8.2-8.9-12.3-21.1-12.3-36.6c0-17.2,3.9-30.5,11.9-40c7.9-9.5,20.1-14.3,36.5-14.3c10.8,0,20.6,1.6,29.3,4.7v11.3
		c-8.9-3.3-18.3-5-28.3-5c-13.1,0-22.4,3.7-28.1,11c-5.6,7.3-8.5,18.1-8.5,32.3c0,12.8,2.9,22.4,8.8,29c5.9,6.6,15.1,9.9,27.6,9.9
		C2831.2-1308.1,2839.3-1309.5,2846.3-1312.2z"/>
	<path class="st28" d="M2955-1309.7c-7.6,8.4-19.3,12.6-35.2,12.6c-15.9,0-27.7-4.2-35.2-12.6c-7.6-8.4-11.4-21.6-11.4-39.6
		c0-18,3.8-31.2,11.4-39.6c7.6-8.4,19.3-12.6,35.2-12.6c15.9,0,27.6,4.2,35.2,12.6c7.6,8.4,11.4,21.6,11.4,39.6
		C2966.4-1331.3,2962.6-1318.1,2955-1309.7z M2949.9-1373.4c-2.4-6-6.1-10.4-11-13c-4.9-2.7-11.3-4-19.1-4c-7.8,0-14.2,1.3-19.1,4
		c-4.9,2.7-8.6,7-11,13c-2.4,6-3.6,14-3.6,24.1s1.2,18.1,3.6,24.1c2.4,6,6.1,10.4,11,13c4.9,2.7,11.3,4,19.1,4
		c7.8,0,14.2-1.3,19.1-4c4.9-2.7,8.6-7,11-13c2.4-6,3.6-14,3.6-24.1S2952.3-1367.3,2949.9-1373.4z"/>
	<path class="st28" d="M2996.2-1308.9v10.2h-14.1v-10.2H2996.2z M2995.6-1399.8h-12.9v24.6l0.9,52.3h11l0.9-52.3V-1399.8z"/>
</g>
<g>
	<g>
		<defs>
			<path id="SVGID_13_" d="M2372.7-1115.9h230.1c22.1-0.5,39.4,12.2,39.9,34.3l4.2,189.8c0.5,22.1-17,40.4-39.1,40.9l-222.3,5
				c-22.1,0.5-40.4-17-40.9-39.1l-4.2-189.8C2339.8-1097,2350.2-1116.4,2372.7-1115.9z"/>
		</defs>
		<clipPath id="SVGID_14_">
			<use xlink:href="#SVGID_13_"  style="overflow:visible;"/>
		</clipPath>
		
			<rect x="2399" y="-1082.2" transform="matrix(-0.9998 2.233031e-02 -2.233031e-02 -0.9998 5559.4595 -2116.957)" class="st77" width="785.2" height="109.5"/>
		<path class="st78" d="M3187.4-1003.5c0.4-0.4,0.6-0.9,0.8-1.3c1.8-4.3,10.6-26.4,8.5-52.3c-2.2-28.1-46.7-154.1-49.1-160.9
			c-0.1-0.2-0.1-0.3-0.2-0.5c-0.5-2.2-4.9-18.7-30-27.4c0,0-26.3-8.9-35.6-24.8c-8.8-15.1-43.2-104-46.7-113.2
			c-0.2-0.5-0.3-1.1-0.3-1.7c-0.1-4.5,0.5-24.4,18-31c1.5-0.6,2.8-1.9,3-3.6c0.2-1.3-0.2-2.9-2.4-4c-4.8-2.4-25.7-9.8-45.3-10.4
			c-0.8,0-1.6-0.2-2.2-0.6c-4.2-2.4-20.9-11.3-36-14.2c-17.2-3.3-313.7,6.9-323.4,7.2c-0.2,0-0.3,0-0.5,0
			c-2.5,0.4-21.3,3.6-33.3,16.8c-2.3,2.6-1.4,6.7,1.9,8l20.2,7.8c0.2,0.1,0.4,0.1,0.6,0.2c1.9,0.5,13.6,4.1,9.1,21.4
			c-4.6,17.7-34.4,125-37.5,136.3c-0.2,0.7-0.5,1.3-1,1.9c-3.5,4.1-19.9,20.5-55.2,16.2c-1-0.1-2,0-2.9,0.5l-167.4,83.7
			c0,0-11.7,6.4-11.3,24.7s0.9,132.2,0.9,132.2s-2.5,26.6,46.7,32.8c2.8,0.3,5.3-1.6,5.6-4.4c2.2-20.1,14.7-94.7,77.3-96.1
			c81.5-1.8,95.2,73.3,97.4,92.6c0.3,2.5,2.5,4.4,5,4.4l356.8-8c2.6-0.1,4.7-2.1,4.8-4.6c1.2-19.5,10.5-95.2,82.6-96.8
			c72.8-1.6,90.1,74.8,93.3,93.4c0.4,2.5,2.7,4.4,5.3,4.1C3152.1-975.8,3167.2-980.5,3187.4-1003.5z"/>
		<polygon class="st79" points="2462.6,-1183.2 3126.2,-1198 3116.6,-1229.3 2529.8,-1216.2 		"/>
		<path class="st80" d="M3076.6-1431.8l79.1,183.1c0,0-38.3-12.7-46.2-28.3s-50.7-121.7-50.7-121.7S3056.8-1425.5,3076.6-1431.8z"/>
		<path class="st80" d="M3045.1-1259.2l-131,2.9c0,0-14.3-0.6-14.9-16c-0.6-15.4,3.8-141.1,3.8-141.1s0.1-9.9,11.1-10.2
			c11.1-0.2,74-1.7,74-1.7s24.2-0.2,38.1,35c13.9,35.2,39.2,110.7,39.2,110.7S3072.7-1259.8,3045.1-1259.2z"/>
		<path class="st80" d="M2881.4-1413.4l-11.9,144.5c0,0,0.3,13.7-17.5,14.1s-219.2,4.9-219.2,4.9l51-168.4l189.3-4.2
			C2873-1422.5,2882-1420.5,2881.4-1413.4z"/>
		<path class="st80" d="M2611.7-1435.3l-62.1,194.8c0,0,38.9,8.7,60.2-17.7l39.6-143.9c0,0,5.2-12.6-4.5-20
			C2635.2-1429.4,2611.7-1435.3,2611.7-1435.3z"/>
		<path class="st81" d="M3176.9-1224.2c0,0,13.7-2.4,18.2,6.8s28.3,84.4,28.3,84.4s1.5,11.4-12.1,11.7c-13.6,0.3-17.7-8.7-17.7-8.7
			l-28.3-84.4C3165.3-1214.5,3164.7-1225.4,3176.9-1224.2z"/>
		<path class="st82" d="M3228.9-1045.8c0,0,16.4,2.5,17.9,18.2s-0.4,33.8-0.4,33.8s0.2,9.9-15.5,10.8c-15.7,0.9-32.6,1.9-32.6,1.9
			s-18.7-2.5-20.8-17.6c-2.1-15.1,2.3-29.2,2.3-29.2l48.3-4.6L3228.9-1045.8z"/>
		<line class="st83" x1="3124.8" y1="-1182.9" x2="2452.8" y2="-1167.9"/>
		<path class="st84" d="M2883.8-1176.7l8.3,197.9c0,0-278.7,10.1-278.7,6.2c-0.1-3.9-4.5-199.5-4.5-199.5l11.5-77.9l55.8-180.7
			l217.4-4.9L2883.8-1176.7z"/>
		
			<ellipse transform="matrix(0.9998 -2.233031e-02 2.233031e-02 0.9998 28.7654 59.444)" class="st82" cx="2676.1" cy="-1258.3" rx="13.2" ry="40.4"/>
		
			<ellipse transform="matrix(0.9998 -2.233031e-02 2.233031e-02 0.9998 22.4979 68.4174)" class="st85" cx="3074.7" cy="-973.2" rx="79.2" ry="79.2"/>
		
			<ellipse transform="matrix(0.9998 -2.233031e-02 2.233031e-02 0.9998 22.4979 68.4174)" class="st86" cx="3074.7" cy="-973.2" rx="55.3" ry="55.3"/>
		
			<ellipse transform="matrix(0.9998 -2.233031e-02 2.233031e-02 0.9998 22.4979 68.4174)" class="st82" cx="3074.7" cy="-973.2" rx="32.6" ry="32.6"/>
		
			<ellipse transform="matrix(0.9998 -2.233031e-02 2.233031e-02 0.9998 22.2368 55.7295)" class="st77" cx="2506.5" cy="-967.8" rx="64.3" ry="64.3"/>
		
			<ellipse transform="matrix(0.9998 -2.233031e-02 2.233031e-02 0.9998 22.2361 55.7084)" class="st87" cx="2505.6" cy="-967.8" rx="44.9" ry="44.9"/>
		
			<ellipse transform="matrix(0.9998 -2.233031e-02 2.233031e-02 0.9998 22.2361 55.7084)" class="st87" cx="2505.6" cy="-967.8" rx="26.5" ry="26.5"/>
		<path class="st88" d="M3230.1-1038.1c0.1-0.7,0.2-1.5,0.7-2.1c0.8-1,2.3-1.2,3.4-0.7c1.2,0.5,2.1,1.4,2.9,2.4
			c4.9,5.9,8,13.4,8.5,21.1c0.1,1.1,0.1,2.1-0.4,3.1c-0.6,1.3-1.9,2.1-3.2,2.8c-14.9,7.8-32.4,10-49.2,8.1c-4.3-0.5-9-1.5-11.4-5.2
			c-1.6-2.5-1.7-5.7-1.5-8.7c0.1-1.4,0.2-2.9,0.8-4.1c1.6-3.1,5.6-3.8,9-4.2c12.1-1.3,24.2-2.6,36.3-3.9c1.1-0.1,2.3-0.3,2.8-1.3
			c0.2-0.4,0.3-0.8,0.4-1.3C3229.5-1034.1,3229.8-1036.1,3230.1-1038.1z"/>
		
			<ellipse transform="matrix(0.9998 -2.233031e-02 2.233031e-02 0.9998 22.6834 76.1796)" class="st85" cx="3422.4" cy="-977.6" rx="64.3" ry="64.3"/>
		
			<ellipse transform="matrix(0.9998 -2.233031e-02 2.233031e-02 0.9998 22.6827 76.1585)" class="st86" cx="3421.5" cy="-977.6" rx="44.9" ry="44.9"/>
		
			<ellipse transform="matrix(0.9998 -2.233031e-02 2.233031e-02 0.9998 22.6827 76.1585)" class="st82" cx="3421.5" cy="-977.6" rx="26.5" ry="26.5"/>
		<path class="st88" d="M3401-986.9c2.6-4.7,6.9-8.6,12-10.4c5.1-1.8,11-1.5,15.7,1.2c2.2,1.2,4.2,2.9,6,4.8
			c4.7,4.8,8.5,10.9,9,17.6c-2.6-1.5-5.9-1.2-8.8-0.4c-2.9,0.9-5.6,2.3-8.6,3c-5.9,1.5-12.1,0-18-1.7c-3.3-1-7-2.3-8.4-5.5
			C3398.6-981.1,3399.6-984.3,3401-986.9z"/>
		<path class="st88" d="M3070.2-998.3c8.5-0.6,17.2,2.8,23.1,8.9c5.9,6.1,9,14.9,8.4,23.4c-3.5-5.2-10.9-6.3-17.1-5
			c-6.2,1.2-11.9,4.3-18.1,5.4c-6.2,1.1-13.6-0.2-16.9-5.6c-2-3.3-2-7.5-0.9-11.2C3051.6-991.5,3060.8-997.6,3070.2-998.3z"/>
	</g>
	<g>
		
			<rect x="2501.6" y="-1104.7" transform="matrix(9.016161e-03 1 -1 9.016161e-03 1578.7693 -3638.1118)" class="st14" width="246.7" height="164.4"/>
		<path class="st15" d="M2616.1-1145.8c0,0,91,166.9,92.2,245.8l-2.2-246.7L2616.1-1145.8z"/>
		<polygon class="st14" points="2541.6,-1145.1 2577.5,-1175.7 2580.3,-867.3 2543.8,-898.5 		"/>
		<path class="st15" d="M2548.2-1150.7l32,282.3c0,0.1,0.1,0.1,0.1,0l-2.8-307.3L2548.2-1150.7z"/>
	</g>
</g>
<g>
	<path class="st1" d="M2064.5-820.8h-11.5c0,6.9,0,13.8,0,20.6l15.2,39.8l-15.8,0c0,5.4-0.1,10.8-0.1,16.3l19,0.1l9.6,24.3h22
		L2064.5-820.8z"/>
	<path class="st1" d="M2118.7-728.4c-8-6.8-12-16.6-12-29.3v-63.1h21.2v61.5c0,7.6,2.1,13.4,6.2,17.3c4.1,3.9,10.1,5.8,17.8,5.8
		c7.7,0,13.7-1.9,17.7-5.8c4.1-3.9,6.1-9.6,6.1-17.3v-61.5h21.2v63.1c0,12.7-4,22.4-11.9,29.3c-8,6.9-19,10.3-33.1,10.3
		C2137.8-718.2,2126.7-721.6,2118.7-728.4z"/>
	<path class="st1" d="M2238.9-804.5h-31.1v-16.3h83.2v16.3h-30.9v84.8h-21.2V-804.5z"/>
	<path class="st1" d="M2290.8-769.8c0-18.2,4.1-31.5,12.2-39.9c8.1-8.4,20.4-12.6,37-12.6c16.5,0,28.9,4.2,37,12.6
		c8.1,8.4,12.2,21.7,12.2,39.9c0,34.4-16.4,51.6-49.1,51.6C2307.2-718.2,2290.8-735.4,2290.8-769.8z M2360.8-744.4
		c4.5-5.5,6.7-13.9,6.7-25.3c0-12.5-2.2-21.3-6.6-26.6c-4.4-5.3-11.4-7.9-21-7.9c-9.6,0-16.6,2.6-21,7.9c-4.4,5.3-6.6,14.2-6.6,26.6
		c0,11.4,2.2,19.9,6.7,25.3c4.5,5.5,11.5,8.2,20.9,8.2C2349.4-736.2,2356.3-739,2360.8-744.4z"/>
	<path class="st1" d="M2403.8-820.8h47.4c11.4,0,20,3.2,25.9,9.6c5.9,6.4,8.8,14.8,8.8,25.3c0,6.8-1.4,12.8-4.3,18.1
		c-2.9,5.2-7,9.3-12.3,12.2c-5.3,2.9-11.6,4.3-18.7,4.3H2425v31.7h-21.2V-820.8z M2446.2-768.2c6,0,10.5-1.6,13.7-4.7
		c3.1-3.1,4.7-7.5,4.7-13c0-5.9-1.5-10.3-4.4-13.4c-2.9-3.1-7.3-4.6-13.2-4.6h-22v35.8H2446.2z"/>
	<path class="st1" d="M2517.5-820.8h23.2l38.5,101.1h-22l-9.6-24.3h-37.2l-9.4,24.3h-22.1L2517.5-820.8z M2544.5-760.4l-15.5-40.7
		l-15.4,40.7H2544.5z"/>
	<path class="st1" d="M2593.9-820.8h48.5c11.3,0,19.7,3,25.3,8.9c5.6,6,8.4,14.3,8.4,25c0,6.8-1.8,12.7-5.3,17.6
		c-3.5,4.9-8.5,8.5-14.8,10.7c1.6,1.4,2.9,2.8,3.8,4.3c1,1.5,2.1,3.6,3.2,6.4l12.2,28.3h-22l-11.9-27.2c-1-2.4-2.2-4.1-3.5-4.9
		c-1.3-0.9-3.4-1.3-6.2-1.3h-16.6v33.4h-21.2V-820.8z M2636.9-770.7c5.8,0,10.1-1.3,13.2-3.8c3-2.6,4.6-6.7,4.6-12.3
		c0-5.7-1.4-9.8-4.1-12.4c-2.7-2.6-6.9-3.9-12.4-3.9h-23.1v32.5H2636.9z"/>
	<path class="st1" d="M2710.2-804.5h-31.1v-16.3h83.2v16.3h-30.9v84.8h-21.2V-804.5z"/>
	<path class="st1" d="M2846.3-733.2v-32.2h-27v-8.8h38.1v48c-8.4,5.3-20.4,8-36.1,8c-15.9,0-28-4.4-36.2-13.3
		c-8.2-8.9-12.3-21.1-12.3-36.6c0-17.2,3.9-30.5,11.9-40c7.9-9.5,20.1-14.3,36.5-14.3c10.8,0,20.6,1.6,29.3,4.7v11.3
		c-8.9-3.3-18.3-5-28.3-5c-13.1,0-22.4,3.7-28.1,11c-5.6,7.3-8.5,18.1-8.5,32.3c0,12.8,2.9,22.4,8.8,29c5.9,6.6,15.1,9.9,27.6,9.9
		C2831.2-729.1,2839.3-730.5,2846.3-733.2z"/>
	<path class="st1" d="M2955-730.7c-7.6,8.4-19.3,12.6-35.2,12.6c-15.9,0-27.7-4.2-35.2-12.6c-7.6-8.4-11.4-21.6-11.4-39.6
		c0-18,3.8-31.2,11.4-39.6c7.6-8.4,19.3-12.6,35.2-12.6c15.9,0,27.6,4.2,35.2,12.6c7.6,8.4,11.4,21.6,11.4,39.6
		C2966.4-752.3,2962.6-739.1,2955-730.7z M2949.9-794.4c-2.4-6-6.1-10.4-11-13c-4.9-2.7-11.3-4-19.1-4c-7.8,0-14.2,1.3-19.1,4
		c-4.9,2.7-8.6,7-11,13c-2.4,6-3.6,14-3.6,24.1c0,10,1.2,18.1,3.6,24.1c2.4,6,6.1,10.4,11,13c4.9,2.7,11.3,4,19.1,4
		c7.8,0,14.2-1.3,19.1-4c4.9-2.7,8.6-7,11-13c2.4-6,3.6-14,3.6-24.1C2953.5-780.3,2952.3-788.3,2949.9-794.4z"/>
	<path class="st1" d="M2996.2-729.9v10.2h-14.1v-10.2H2996.2z M2995.6-820.8h-12.9v24.6l0.9,52.3h11l0.9-52.3V-820.8z"/>
</g>
<rect x="-88.1" y="-1414.7" class="st89" width="1407.5" height="66.7"/>
<rect x="-88.1" y="-1346.7" class="st90" width="1407.5" height="66.7"/>
<rect x="-88.1" y="-1279.7" class="st15" width="1407.5" height="66.7"/>
<rect x="-88.1" y="-1212.7" class="st14" width="1407.5" height="66.7"/>
<rect x="-88.1" y="-1145.7" class="st91" width="1407.5" height="66.7"/>
<text transform="matrix(1 0 0 1 711.8391 -982.1406)" style="font-family:'Kanit-Medium'; font-size:93.7613px;">Kanit Medium</text>
<text transform="matrix(1 0 0 1 854.5124 -878.1406)" style="font-family:'Kanit-Light'; font-size:93.7613px;">Kanit Light</text>
</svg>
